<svg width="506" height="355" viewBox="0 0 506 355" fill="none" xmlns="http://www.w3.org/2000/svg">
<path d="M312.678 200.618C306.372 204.503 286.376 207.075 277.878 207.548H316.201C315.192 205.158 314.015 202.842 312.678 200.618Z" fill="#14324C"/>
<path d="M318.958 216.292H193.314L147.115 312.208C149.307 314.145 151.636 315.922 154.084 317.523L147.165 332.091C157.106 334.821 167.578 334.977 177.596 332.543L180.144 326.599C182.685 326.848 185.237 326.955 187.79 326.919L205.884 293.805L200.445 321.292C202.889 322.498 205.404 323.557 207.974 324.463L205.968 332.538C215.026 335.125 224.628 335.125 233.688 332.538L234.539 328.734C236.987 328.723 239.433 328.618 241.873 328.42L261.809 247.772L267.835 248.676L309.766 245.312C318.387 238.263 322.143 229.502 318.958 216.292Z" fill="#14324C"/>
<path d="M159.718 136.293C159.566 138.135 158.881 139.893 157.747 141.353C156.613 142.812 155.078 143.909 153.331 144.511C151.583 145.112 149.698 145.191 147.906 144.739C146.114 144.287 144.492 143.322 143.24 141.963C141.987 140.604 141.157 138.91 140.851 137.087C140.546 135.264 140.777 133.392 141.519 131.699C142.26 130.006 143.478 128.565 145.024 127.553C146.571 126.54 148.378 126.001 150.227 125.999C152.85 126.106 155.324 127.251 157.103 129.181C158.883 131.112 159.823 133.67 159.718 136.293Z" fill="#14324C"/>
<path d="M155.948 121.684C154.426 122.807 152.565 123.375 150.675 123.291C150.86 121.409 151.695 119.651 153.035 118.319C154.557 117.196 156.418 116.628 158.308 116.712C158.123 118.593 157.289 120.351 155.948 121.684Z" fill="#14324C"/>
<path d="M266.386 111.548C266.302 112.868 266.035 114.169 265.593 115.415L270.414 110.896C269.104 111.28 267.751 111.5 266.386 111.548Z" fill="#5CC7FF"/>
<path d="M285.566 154.116V177.517C286.872 177.316 288.177 177.115 289.483 176.864C288.784 169.189 287.475 161.583 285.566 154.116Z" fill="#5CC7FF"/>
<path d="M256.29 188.819L250.164 186.56C249.454 185.95 248.767 185.313 248.105 184.651C249.717 177.671 254.031 180.283 256.29 188.819Z" fill="#5CC7FF"/>
<path d="M209.489 102.446V165.919C209.488 168.236 208.567 170.458 206.928 172.096C205.29 173.734 203.068 174.655 200.751 174.657H197.437C199.754 174.655 201.976 173.734 203.614 172.096C205.252 170.458 206.173 168.236 206.175 165.919V102.446C206.173 100.129 205.252 97.9071 203.614 96.2687C201.976 94.6304 199.754 93.7094 197.437 93.708H200.751C203.068 93.7094 205.29 94.6304 206.928 96.2687C208.567 97.9071 209.488 100.129 209.489 102.446Z" fill="#5CC7FF"/>
<path d="M177.802 205.343H171.274C170.228 205.352 169.215 204.971 168.433 204.275C167.652 203.579 167.157 202.617 167.046 201.576L164.294 174.716H160.98L164.646 208.16H180.564C180.572 207.793 180.506 207.427 180.371 207.086C180.236 206.744 180.033 206.433 179.776 206.17C179.519 205.908 179.212 205.699 178.873 205.557C178.534 205.415 178.17 205.342 177.802 205.343Z" fill="#5CC7FF"/>
<path d="M289.331 93.41C289.924 92.6974 290.242 91.7967 290.23 90.87C290.217 89.9433 289.874 89.0515 289.263 88.3552C288.651 87.6589 287.811 87.2037 286.894 87.0717C285.977 86.9397 285.042 87.1395 284.259 87.6351C284.686 86.8714 284.842 85.9861 284.702 85.1226C284.562 84.2592 284.135 83.4682 283.49 82.8777C282.846 82.2868 282.022 81.9295 281.151 81.8633C280.279 81.7972 279.411 82.026 278.685 82.513C281.027 78.2975 274.314 74.6951 271.813 78.7468C270.267 83.3214 268.335 87.7563 266.039 92.0039C272.466 83.0178 276.785 92.5563 276.383 98.1805C276.433 99.2853 276.986 99.5866 278.794 98.2809C282.51 95.5693 285.171 101.897 278.241 105.01C276.105 109.118 275.483 113.847 276.484 118.368C276.433 117.664 275.63 103.654 291.448 100.742C292.267 100.568 293.002 100.12 293.531 99.4717C294.059 98.8231 294.351 98.0131 294.355 97.1762C294.362 96.565 294.224 95.961 293.953 95.4131C293.682 94.8652 293.286 94.389 292.796 94.0231C292.307 93.6561 291.739 93.4093 291.137 93.3027C290.535 93.1962 289.916 93.233 289.331 93.41Z" fill="#5CC7FF"/>
<path d="M273.464 134.686C273.464 135.167 273.273 135.627 272.934 135.967C272.594 136.306 272.134 136.497 271.654 136.497C271.174 136.497 270.713 136.306 270.374 135.967C270.034 135.627 269.843 135.167 269.843 134.686C269.843 134.206 270.034 133.746 270.374 133.406C270.713 133.067 271.174 132.876 271.654 132.876C272.134 132.876 272.594 133.067 272.934 133.406C273.273 133.746 273.464 134.206 273.464 134.686Z" fill="#5CC7FF"/>
<path d="M256.089 151.407C256.089 151.887 255.898 152.348 255.559 152.687C255.219 153.027 254.759 153.218 254.279 153.218C253.799 153.218 253.338 153.027 252.999 152.687C252.659 152.348 252.468 151.887 252.468 151.407C252.468 150.927 252.659 150.466 252.999 150.127C253.338 149.787 253.799 149.597 254.279 149.597C254.759 149.597 255.219 149.787 255.559 150.127C255.898 150.466 256.089 150.927 256.089 151.407Z" fill="#5CC7FF"/>
<path d="M269.599 170.341C269.599 170.821 269.408 171.281 269.069 171.621C268.729 171.96 268.269 172.151 267.788 172.151C267.308 172.151 266.848 171.96 266.508 171.621C266.169 171.281 265.978 170.821 265.978 170.341C265.978 169.861 266.169 169.4 266.508 169.061C266.848 168.721 267.308 168.53 267.788 168.53C268.269 168.53 268.729 168.721 269.069 169.061C269.408 169.4 269.599 169.861 269.599 170.341Z" fill="#5CC7FF"/>
<path d="M368.916 176.011H350.838C350.198 176.011 349.585 176.265 349.133 176.717C348.681 177.169 348.427 177.782 348.427 178.421V205.136C348.427 205.776 348.681 206.389 349.133 206.841C349.585 207.293 350.198 207.547 350.838 207.547H368.916C369.552 207.538 370.161 207.282 370.611 206.832C371.061 206.381 371.318 205.773 371.326 205.136V178.411C371.321 177.774 371.065 177.165 370.614 176.715C370.163 176.266 369.552 176.013 368.916 176.011Z" fill="#5CC7FF"/>
<path d="M366.277 48.9092L341.821 55.588C341.385 55.7071 340.988 55.9386 340.669 56.2592C340.35 56.5799 340.12 56.9786 340.003 57.4155C339.887 57.8525 339.886 58.3124 340.003 58.7495C340.119 59.1866 340.348 59.5855 340.666 59.9066L362.661 81.7005C362.901 81.9406 363.185 82.1312 363.498 82.2612C363.811 82.3912 364.147 82.4581 364.486 82.4581C364.825 82.4581 365.161 82.3912 365.474 82.2612C365.787 82.1312 366.072 81.9406 366.311 81.7005C366.631 81.3803 366.861 80.9822 366.98 80.5455L373.508 55.6382L366.277 48.9092Z" fill="#5CC7FF"/>
<path d="M383.218 38.6857C382.332 37.8147 381.136 37.3311 379.893 37.341C378.651 37.3509 377.462 37.8535 376.59 38.7386L366.396 49.0303L373.268 55.4078L383.261 45.3143C384.122 44.4235 384.6 43.2306 384.593 41.9914C384.585 40.7521 384.091 39.5654 383.218 38.6857Z" fill="#5CC7FF"/>
<path d="M167.561 5.03401C167.56 5.4564 167.476 5.87445 167.314 6.2643C167.151 6.65414 166.913 7.00814 166.614 7.30608C166.314 7.60402 165.959 7.84008 165.568 8.00076C165.178 8.16145 164.759 8.24361 164.337 8.24256C163.915 8.24152 163.497 8.1573 163.107 7.9947C162.717 7.83209 162.363 7.59429 162.065 7.29487C161.767 6.99546 161.531 6.64029 161.37 6.24965C161.21 5.85901 161.127 5.44054 161.128 5.01815C161.131 4.16508 161.471 3.34779 162.076 2.74606C162.681 2.14434 163.5 1.80748 164.353 1.80958C165.206 1.81168 166.023 2.15258 166.625 2.75728C167.227 3.36198 167.564 4.18094 167.561 5.03401Z" fill="#5CC7FF"/>
<path d="M233.694 332.54C224.634 335.128 215.034 335.128 205.974 332.54C197.488 335.001 180.816 346.852 180.816 346.852H236.908C236.377 341.976 235.299 337.175 233.694 332.54Z" fill="#5CC7FF"/>
<path d="M177.602 332.539C167.585 334.973 157.111 334.817 147.171 332.087C138.07 335.071 129.784 340.124 122.966 346.851H180.765C180.061 342.009 179.004 337.226 177.602 332.539Z" fill="#5CC7FF"/>
<path d="M277.785 247.871L267.842 248.674L261.816 247.77L263.071 242.698L277.785 247.871Z" fill="#5CC7FF"/>
<path d="M451.684 207.55H61.3019C60.1432 207.55 59.032 208.01 58.2127 208.829C57.3934 209.649 56.9331 210.76 56.9331 211.919C56.9331 213.077 57.3934 214.189 58.2127 215.008C59.032 215.827 60.1432 216.287 61.3019 216.287H114.804L90.1764 352.625C90.1341 352.873 90.1182 353.127 90.1262 353.378H98.9642L123.713 216.287H389.366L414.122 353.428H422.961C422.91 353.177 422.91 352.926 422.86 352.636L398.236 216.298H451.684C452.817 216.259 453.89 215.781 454.677 214.966C455.464 214.151 455.904 213.062 455.904 211.929C455.904 210.796 455.464 209.707 454.677 208.892C453.89 208.077 452.817 207.6 451.684 207.56V207.55Z" fill="#5CC7FF"/>
<path d="M167.561 5.03401C167.56 5.4564 167.476 5.87445 167.314 6.2643C167.151 6.65414 166.913 7.00814 166.614 7.30608C166.314 7.60402 165.959 7.84008 165.568 8.00076C165.178 8.16145 164.759 8.2436 164.337 8.24256C163.915 8.24152 163.497 8.1573 163.107 7.9947C162.717 7.83209 162.363 7.59429 162.065 7.29487C161.767 6.99546 161.531 6.64029 161.37 6.24965C161.21 5.85901 161.127 5.44054 161.128 5.01815C161.131 4.16508 161.471 3.34779 162.076 2.74606C162.681 2.14434 163.5 1.80748 164.353 1.80958C165.206 1.81168 166.023 2.15258 166.625 2.75728C167.227 3.36198 167.564 4.18094 167.561 5.03401Z" stroke="white" stroke-opacity="0.5" stroke-width="2.65625"/>
<path d="M383.218 38.6857C382.332 37.8147 381.136 37.3311 379.893 37.341C378.651 37.3509 377.462 37.8535 376.59 38.7386L366.396 49.0303L373.268 55.4078L383.261 45.3143C384.122 44.4235 384.6 43.2306 384.593 41.9914C384.585 40.7521 384.091 39.5654 383.218 38.6857Z" stroke="white" stroke-opacity="0.5" stroke-width="2.65625" stroke-linejoin="round"/>
<path d="M451.684 207.55H61.3019C60.1432 207.55 59.032 208.01 58.2127 208.829C57.3934 209.649 56.9331 210.76 56.9331 211.919C56.9331 213.077 57.3934 214.189 58.2127 215.008C59.032 215.827 60.1432 216.287 61.3019 216.287H114.804L90.1764 352.625C90.1341 352.873 90.1182 353.127 90.1262 353.378H98.9642L123.713 216.287H389.366L414.122 353.428H422.961C422.91 353.177 422.91 352.926 422.86 352.636L398.236 216.298H451.684C452.817 216.259 453.89 215.781 454.677 214.966C455.464 214.151 455.904 213.062 455.904 211.929C455.904 210.796 455.464 209.707 454.677 208.892C453.89 208.077 452.817 207.6 451.684 207.56V207.55Z" stroke="white" stroke-opacity="0.5" stroke-width="2.65625" stroke-linejoin="round"/>
<path d="M244.897 200.718C242.812 203.541 239.947 205.692 236.654 206.906C233.361 208.119 229.785 208.342 226.367 207.547" stroke="white" stroke-opacity="0.5" stroke-width="2.65625" stroke-linecap="round" stroke-linejoin="round"/>
<path d="M131.318 192.287C131.318 192.287 106.899 190.03 103.535 207.553" stroke="white" stroke-opacity="0.5" stroke-width="2.65625" stroke-linecap="round" stroke-linejoin="round"/>
<path d="M139.989 196.201C139.236 195.799 138.628 195.408 138.031 195.046C135.192 193.331 134.164 192.184 131.653 190.527C129.239 188.926 127 187.074 124.975 185.003C119.398 179.281 121.259 178.274 127.536 182.04C127.574 182.046 127.609 182.063 127.636 182.09C131.804 184.615 136.151 186.831 140.642 188.721" stroke="white" stroke-opacity="0.5" stroke-width="2.65625" stroke-linecap="round" stroke-linejoin="round"/>
<path d="M138.036 195.044C132.549 192.618 126.897 190.586 121.121 188.966C116.252 187.596 117.103 186.5 117.907 186.354C120.873 186.129 123.856 186.247 126.795 186.706" stroke="white" stroke-opacity="0.5" stroke-width="2.65625" stroke-linecap="round" stroke-linejoin="round"/>
<path d="M139.087 205.341C138.07 205.206 137.048 205.123 136.023 205.09C127.341 204.773 130.402 202.841 133.412 201.976C134.972 201.53 137.53 201.022 139.589 200.319" stroke="white" stroke-opacity="0.5" stroke-width="2.65625" stroke-linecap="round" stroke-linejoin="round"/>
<path d="M326.898 252.997L341.21 353.43" stroke="white" stroke-opacity="0.5" stroke-width="2.65625" stroke-linecap="round" stroke-linejoin="round"/>
<path d="M342.415 180.077L318.914 178.37" stroke="white" stroke-opacity="0.5" stroke-width="2.65625" stroke-linecap="round" stroke-linejoin="round"/>
<path d="M234.548 328.735L233.697 332.539" stroke="white" stroke-opacity="0.5" stroke-width="2.65625" stroke-linecap="round" stroke-linejoin="round"/>
<path d="M205.921 332.54L207.978 324.466" stroke="white" stroke-opacity="0.5" stroke-width="2.65625" stroke-linecap="round" stroke-linejoin="round"/>
<path d="M180.16 326.563L177.599 332.539" stroke="white" stroke-opacity="0.5" stroke-width="2.65625" stroke-linecap="round" stroke-linejoin="round"/>
<path d="M147.121 332.137L154.09 317.519" stroke="white" stroke-opacity="0.5" stroke-width="2.65625" stroke-linecap="round" stroke-linejoin="round"/>
<path d="M205.924 293.668L187.796 326.911C172.85 327.425 158.281 322.156 147.121 312.2L193.32 216.284" stroke="white" stroke-opacity="0.5" stroke-width="2.65625" stroke-linecap="round" stroke-linejoin="round"/>
<path d="M227.464 328.536L245.994 240.694C246.264 239.411 246.786 238.194 247.529 237.114C248.273 236.034 249.223 235.112 250.326 234.402C251.428 233.692 252.66 233.208 253.951 232.978C255.242 232.748 256.565 232.776 257.845 233.061C273.436 236.547 302.747 239.751 305.696 216.405" stroke="white" stroke-opacity="0.5" stroke-width="2.65625" stroke-linecap="round" stroke-linejoin="round"/>
<path d="M162.162 185.165L219.081 175.915C228.471 161.643 239.624 128.584 255.789 123.991C258.439 123.315 260.853 121.926 262.769 119.974" stroke="white" stroke-opacity="0.5" stroke-width="2.65625" stroke-linecap="round" stroke-linejoin="round"/>
<path d="M266.385 111.543C267.716 111.496 269.037 111.301 270.325 110.962L265.568 115.41" stroke="white" stroke-opacity="0.5" stroke-width="2.65625" stroke-linecap="round" stroke-linejoin="round"/>
<path d="M277.283 120.372C278.06 121.799 279.352 122.878 280.898 123.385C288.931 126.383 296.375 130.766 302.893 136.336C310.33 143.16 316.901 168.165 319.766 184.644C320.458 188.518 319.664 192.51 317.542 195.824C315.419 199.138 312.125 201.53 308.316 202.521C298.382 205.28 288.18 206.964 277.885 207.542" stroke="white" stroke-opacity="0.5" stroke-width="2.65625" stroke-linecap="round" stroke-linejoin="round"/>
<path d="M295.209 175.714C280.633 178.525 265.857 180.171 251.019 180.635" stroke="white" stroke-opacity="0.5" stroke-width="2.65625" stroke-linecap="round" stroke-linejoin="round"/>
<path d="M289.436 176.823C288.783 169.143 287.472 161.532 285.519 154.075V177.526" stroke="white" stroke-opacity="0.5" stroke-width="2.65625" stroke-linecap="round" stroke-linejoin="round"/>
<path d="M170.822 183.747C175.397 190.761 177.021 199.296 175.341 207.499" stroke="white" stroke-opacity="0.5" stroke-width="2.65625" stroke-linecap="round" stroke-linejoin="round"/>
<path d="M232.891 187.464C229.025 189.171 219.132 191.986 213.809 193.691C211.298 194.484 215.767 197.356 230.933 192.988" stroke="white" stroke-opacity="0.5" stroke-width="2.65625" stroke-linecap="round" stroke-linejoin="round"/>
<path d="M233.648 191.382C229.982 193.692 224.662 196.351 219.838 198.914C217.579 200.117 219.638 202.731 232.995 197.207" stroke="white" stroke-opacity="0.5" stroke-width="2.65625" stroke-linecap="round" stroke-linejoin="round"/>
<path d="M234.699 195.044C232.584 197.655 230.753 200.187 227.216 203.982C225.57 205.751 228.593 206.824 239.77 198.961C241.832 197.51 242.942 199.101 245.646 201.371C249.222 204.371 251.622 207.849 254.233 207.498" stroke="white" stroke-opacity="0.5" stroke-width="2.65625" stroke-linecap="round" stroke-linejoin="round"/>
<path d="M241.228 183.347C237.211 174.096 239.822 173.568 241.228 175.915C243.611 179.762 246.497 183.274 249.81 186.357" stroke="white" stroke-opacity="0.5" stroke-width="2.65625" stroke-linecap="round" stroke-linejoin="round"/>
<path d="M248.105 184.651C249.358 179.207 252.262 179.598 254.551 184.086C257.194 189.276 259.605 207.55 254.081 207.55" stroke="white" stroke-opacity="0.5" stroke-width="2.65625" stroke-linecap="round" stroke-linejoin="round"/>
<path d="M256.104 188.752C250.196 186.548 240.719 182.694 238.16 182.694C237.206 182.694 226.309 185.866 221.037 187.314C217.572 188.271 215.917 189.87 221.539 189.674C223.899 189.592 226.51 189.273 228.87 188.971" stroke="white" stroke-opacity="0.5" stroke-width="2.65625" stroke-linecap="round" stroke-linejoin="round"/>
<path d="M245.096 149.604C242.918 160.239 243.055 171.217 245.498 181.793" stroke="white" stroke-opacity="0.5" stroke-width="2.65625" stroke-linecap="round" stroke-linejoin="round"/>
<path d="M164.649 207.499H138.837L142.051 174.708H161.033L164.649 207.499Z" stroke="white" stroke-opacity="0.5" stroke-width="2.65625" stroke-linecap="round" stroke-linejoin="round"/>
<path d="M159.723 136.291C159.572 138.133 158.887 139.892 157.753 141.351C156.619 142.81 155.084 143.907 153.336 144.509C151.589 145.11 149.704 145.189 147.912 144.737C146.12 144.285 144.498 143.32 143.245 141.961C141.993 140.602 141.163 138.908 140.857 137.085C140.551 135.262 140.783 133.39 141.524 131.697C142.265 130.004 143.484 128.563 145.03 127.551C146.577 126.539 148.384 125.999 150.233 125.997C152.856 126.104 155.33 127.249 157.109 129.179C158.889 131.11 159.829 133.668 159.723 136.291Z" stroke="white" stroke-opacity="0.5" stroke-width="2.65625" stroke-linecap="round" stroke-linejoin="round"/>
<path d="M155.96 121.682C154.437 122.805 152.577 123.373 150.687 123.289C150.872 121.407 151.707 119.649 153.047 118.317C154.569 117.194 156.43 116.627 158.32 116.71C158.135 118.591 157.3 120.349 155.96 121.682Z" stroke="white" stroke-opacity="0.5" stroke-width="2.65625" stroke-linecap="round" stroke-linejoin="round"/>
<path d="M266.033 92.0539C268.324 87.8038 270.256 83.3693 271.808 78.7967C272.165 78.2726 272.643 77.8414 273.201 77.5388C273.758 77.2361 274.38 77.0709 275.014 77.0567C275.649 77.0425 276.277 77.1797 276.848 77.457C277.419 77.7344 277.915 78.1438 278.296 78.6514C278.804 79.3306 279.081 80.1579 279.089 81.0062C279.084 81.5501 278.946 82.0845 278.687 82.5629C279.413 82.0783 280.281 81.8515 281.151 81.9189C282.021 81.9863 282.844 82.3439 283.486 82.9345C284.129 83.525 284.555 84.3143 284.695 85.1757C284.836 86.0372 284.683 86.9208 284.261 87.685C285.044 87.1894 285.979 86.9896 286.896 87.1216C287.813 87.2537 288.653 87.7088 289.265 88.4051C289.876 89.1015 290.219 89.9933 290.232 90.9199C290.244 91.8466 289.926 92.7473 289.333 93.4599C289.816 93.3055 290.325 93.2493 290.83 93.2947C291.335 93.34 291.826 93.4859 292.274 93.7238C292.721 93.9618 293.117 94.2868 293.437 94.68C293.757 95.0731 293.996 95.5264 294.138 96.013C294.348 96.7474 294.333 97.5279 294.095 98.2536C293.856 98.9793 293.406 99.6167 292.801 100.083C292.398 100.391 291.938 100.615 291.447 100.741C287.171 101.204 283.235 103.291 280.45 106.57C277.666 109.849 276.246 114.072 276.483 118.367" stroke="white" stroke-opacity="0.5" stroke-width="2.65625" stroke-linecap="round" stroke-linejoin="round"/>
<path d="M277.279 120.375L276.325 127.908L268.642 121.832L259.955 126.2L262.767 119.974" stroke="white" stroke-opacity="0.5" stroke-width="2.65625" stroke-linecap="round" stroke-linejoin="round"/>
<path d="M268.642 121.829C262.315 137.798 260.055 157.834 259.955 180.13" stroke="white" stroke-opacity="0.5" stroke-width="2.65625" stroke-linecap="round" stroke-linejoin="round"/>
<path d="M371.341 184.603C373.247 184.603 375.073 185.358 376.418 186.706C377.086 187.372 377.616 188.164 377.978 189.035C378.339 189.906 378.526 190.84 378.526 191.783C378.526 192.727 378.339 193.661 377.978 194.532C377.616 195.403 377.086 196.195 376.418 196.861C375.073 198.209 373.247 198.964 371.341 198.964" stroke="white" stroke-opacity="0.5" stroke-width="2.65625" stroke-linecap="round" stroke-linejoin="round"/>
<path d="M437.171 117.962C437.172 118.616 437.027 119.262 436.748 119.853C436.469 120.444 436.063 120.966 435.557 121.38C435.052 121.795 434.461 122.092 433.827 122.251C433.192 122.409 432.531 122.425 431.89 122.297C431.248 122.17 430.643 121.903 430.117 121.514C429.592 121.125 429.159 120.624 428.851 120.047C428.543 119.47 428.366 118.833 428.335 118.179C428.303 117.526 428.417 116.874 428.668 116.271C429.004 115.464 429.571 114.775 430.298 114.29C431.025 113.805 431.88 113.546 432.753 113.546C433.627 113.546 434.482 113.804 435.209 114.288C435.936 114.773 436.504 115.462 436.84 116.268C437.062 116.804 437.173 117.381 437.171 117.962Z" stroke="white" stroke-opacity="0.5" stroke-width="2.65625" stroke-linecap="round" stroke-linejoin="round"/>
<path d="M401.666 194.794L432.749 122.382" stroke="white" stroke-opacity="0.5" stroke-width="2.65625" stroke-linecap="round" stroke-linejoin="round"/>
<path d="M432.75 113.543L387.455 62.7236" stroke="white" stroke-opacity="0.5" stroke-width="2.65625" stroke-linecap="round" stroke-linejoin="round"/>
<path d="M382.032 59.2601L374.349 54.3389" stroke="white" stroke-opacity="0.5" stroke-width="2.65625" stroke-linecap="round" stroke-linejoin="round"/>
<path d="M356.273 75.3782C355.459 76.0154 354.495 76.434 353.473 76.5943C352.451 76.7546 351.406 76.6513 350.435 76.2942C349.464 75.9371 348.601 75.338 347.926 74.5538C347.252 73.7695 346.789 72.8261 346.582 71.8128C346.406 70.9578 346.418 70.0749 346.618 69.2251C346.817 68.3754 347.199 67.5791 347.737 66.8916" stroke="white" stroke-opacity="0.5" stroke-width="2.65625" stroke-linecap="round" stroke-linejoin="round"/>
<path d="M388.21 60.6655C388.211 61.1486 388.105 61.6259 387.899 62.0628C387.693 62.4998 387.392 62.8854 387.019 63.1918C386.645 63.4982 386.208 63.7177 385.74 63.8343C385.271 63.951 384.782 63.9618 384.308 63.8662C383.509 63.7133 382.796 63.2671 382.309 62.6152C381.821 61.9634 381.596 61.1529 381.675 60.343C381.755 59.5331 382.135 58.7823 382.74 58.2381C383.345 57.6938 384.132 57.3954 384.945 57.4015C385.807 57.4138 386.63 57.7616 387.24 58.3711C387.849 58.9806 388.197 59.8037 388.21 60.6655Z" stroke="white" stroke-opacity="0.5" stroke-width="2.65625" stroke-linecap="round" stroke-linejoin="round"/>
<path d="M404.885 198.056C404.887 198.539 404.78 199.016 404.574 199.453C404.368 199.89 404.068 200.276 403.694 200.582C403.321 200.889 402.884 201.108 402.415 201.225C401.946 201.341 401.458 201.352 400.984 201.257C400.351 201.132 399.769 200.821 399.314 200.363C398.973 200.022 398.713 199.609 398.551 199.155C398.389 198.7 398.329 198.216 398.377 197.736C398.424 197.256 398.577 196.792 398.824 196.379C399.072 195.965 399.408 195.611 399.808 195.342C400.435 194.92 401.19 194.73 401.942 194.804C402.694 194.877 403.398 195.211 403.931 195.746C404.234 196.049 404.475 196.41 404.638 196.806C404.802 197.202 404.886 197.627 404.885 198.056Z" stroke="white" stroke-opacity="0.5" stroke-width="2.65625" stroke-linecap="round" stroke-linejoin="round"/>
<path d="M267.844 259.876L261.818 353.429" stroke="white" stroke-opacity="0.5" stroke-width="2.65625" stroke-linecap="round" stroke-linejoin="round"/>
<path d="M169.468 49.4163H139.539V19.4873H169.468V49.4163Z" stroke="white" stroke-opacity="0.5" stroke-width="2.65625" stroke-linecap="round" stroke-linejoin="round"/>
<path d="M154.505 26.3171L163.243 7.8877" stroke="white" stroke-opacity="0.5" stroke-width="2.65625" stroke-linecap="round" stroke-linejoin="round"/>
<path d="M68.3831 265.069H45.5347" stroke="white" stroke-opacity="0.5" stroke-width="2.65625" stroke-linecap="round" stroke-linejoin="round"/>
<path d="M56.9331 276.492V253.644" stroke="white" stroke-opacity="0.5" stroke-width="2.65625" stroke-linecap="round" stroke-linejoin="round"/>
<path d="M438.077 250.585C438.167 251.565 438.038 252.553 437.7 253.478C437.362 254.402 436.823 255.24 436.122 255.931C435.421 256.621 434.575 257.148 433.646 257.472C432.716 257.796 431.727 257.91 430.748 257.806C429.439 257.666 428.201 257.142 427.19 256.299C426.179 255.457 425.439 254.334 425.065 253.072C424.788 252.128 424.722 251.135 424.874 250.163C425.026 249.19 425.392 248.264 425.945 247.45C426.497 246.636 427.223 245.955 428.071 245.455C428.918 244.955 429.866 244.649 430.846 244.559C432.16 244.424 433.484 244.687 434.647 245.316C435.809 245.944 436.754 246.908 437.361 248.082C437.762 248.859 438.005 249.71 438.077 250.585Z" stroke="white" stroke-opacity="0.5" stroke-width="2.65625" stroke-linecap="round" stroke-linejoin="round"/>
<path d="M1.54443 353.429H503.709" stroke="white" stroke-opacity="0.5" stroke-width="2.65625" stroke-linecap="round" stroke-linejoin="round"/>
<path d="M180.818 346.853H236.91" stroke="white" stroke-opacity="0.5" stroke-width="2.65625" stroke-linecap="round" stroke-linejoin="round"/>
<path d="M122.919 346.853H180.719" stroke="white" stroke-opacity="0.5" stroke-width="2.65625" stroke-linecap="round" stroke-linejoin="round"/>
<path d="M180.815 346.768C180.283 341.917 179.206 337.142 177.604 332.533C167.587 334.967 157.113 334.811 147.173 332.081C135.259 336.127 124.764 343.52 116.943 353.375C140.143 353.375 155.559 353.426 173.035 353.375" stroke="white" stroke-opacity="0.5" stroke-width="2.65625" stroke-linecap="round" stroke-linejoin="round"/>
<path d="M233.696 332.54C224.636 335.128 215.037 335.128 205.977 332.54C193.47 336.166 177.467 348.948 173.035 353.38C199.549 353.38 216.221 353.129 237.061 353.129C237.244 346.115 236.103 339.13 233.696 332.54Z" stroke="white" stroke-opacity="0.5" stroke-width="2.65625" stroke-linecap="round" stroke-linejoin="round"/>
<path d="M261.818 247.77L263.073 242.698L277.787 247.871" stroke="white" stroke-opacity="0.5" stroke-width="2.65625" stroke-linecap="round" stroke-linejoin="round"/>
<path d="M261.818 247.775L267.844 248.679L322.07 244.249" stroke="white" stroke-opacity="0.5" stroke-width="2.65625" stroke-linecap="round" stroke-linejoin="round"/>
<path d="M329.052 244.762L311.978 243.507" stroke="white" stroke-opacity="0.5" stroke-width="2.65625" stroke-linecap="round" stroke-linejoin="round"/>
<path d="M171.328 325.057L213.811 253.8" stroke="white" stroke-opacity="0.5" stroke-width="2.65625" stroke-linecap="round" stroke-linejoin="round"/>
<path d="M264.023 179.827C268.542 186.506 269.697 195.746 267.387 207.547" stroke="white" stroke-opacity="0.5" stroke-width="2.65625" stroke-linecap="round" stroke-linejoin="round"/>
<path d="M259.052 258.87L267.84 259.874L322.814 255.305C323.968 255.215 325.064 254.764 325.948 254.016C326.831 253.268 327.457 252.26 327.735 251.137L351.487 135.99C351.881 134.127 351.652 132.186 350.836 130.466C350.019 128.746 348.66 127.341 346.968 126.468C345.847 125.886 344.614 125.554 343.352 125.495L278.988 122.382" stroke="white" stroke-opacity="0.5" stroke-width="2.65625" stroke-linecap="round" stroke-linejoin="round"/>
<path d="M238.213 214.78C233.07 215.771 228.34 218.274 224.627 221.969C220.915 225.663 218.389 230.381 217.374 235.52L200.458 321.289C213.361 327.395 227.685 329.862 241.887 328.425C241.887 328.177 257.266 266.154 261.823 247.778" stroke="white" stroke-opacity="0.5" stroke-width="2.65625" stroke-linecap="round" stroke-linejoin="round"/>
<path d="M197.441 93.708C199.758 93.7094 201.979 94.6304 203.618 96.2687C205.256 97.9071 206.177 100.129 206.178 102.446V165.969C206.178 168.287 205.258 170.51 203.619 172.15C201.981 173.789 199.758 174.711 197.441 174.712H110.616C108.297 174.711 106.073 173.791 104.431 172.153C102.789 170.515 101.863 168.294 101.855 165.975V102.446C101.853 101.299 102.077 100.163 102.514 99.1031C102.952 98.0431 103.594 97.0798 104.404 96.2682C105.214 95.4566 106.176 94.8127 107.235 94.3734C108.295 93.9341 109.43 93.708 110.577 93.708H197.441Z" stroke="white" stroke-opacity="0.5" stroke-width="2.65625" stroke-linecap="round" stroke-linejoin="round"/>
<path d="M209.489 102.446V165.919C209.488 168.236 208.567 170.458 206.928 172.096C205.29 173.734 203.068 174.655 200.751 174.657H197.437C199.754 174.655 201.976 173.734 203.614 172.096C205.252 170.458 206.173 168.236 206.175 165.919V102.446C206.173 100.129 205.252 97.9071 203.614 96.2687C201.976 94.6304 199.754 93.7094 197.437 93.708H200.751C203.068 93.7094 205.29 94.6304 206.928 96.2687C208.567 97.9071 209.488 100.129 209.489 102.446Z" stroke="white" stroke-opacity="0.5" stroke-width="2.65625" stroke-linecap="round" stroke-linejoin="round"/>
<path d="M278.794 98.3314C282.494 95.6039 285.137 101.907 278.242 105.06C277.282 105.499 274.325 115.154 277.288 120.39C272.557 121.946 266.843 122.874 262.775 119.988C264.924 117.679 266.201 114.694 266.388 111.546C253.332 111.747 265.786 92.0121 266.037 92.0121C272.419 83.0868 276.722 92.4772 276.389 98.0698C276.291 99.7216 277.449 99.3172 278.794 98.3314Z" stroke="white" stroke-opacity="0.5" stroke-width="2.65625" stroke-linecap="round" stroke-linejoin="round"/>
<path d="M310.042 245.145C313.378 242.645 316.042 239.356 317.795 235.574C319.547 231.792 320.335 227.634 320.086 223.473C319.904 221.096 319.557 218.734 319.047 216.405" stroke="white" stroke-opacity="0.5" stroke-width="2.65625" stroke-linecap="round" stroke-linejoin="round"/>
<path d="M312.687 200.616C314.047 202.833 315.235 205.151 316.242 207.549" stroke="white" stroke-opacity="0.5" stroke-width="2.65625" stroke-linecap="round" stroke-linejoin="round"/>
<path d="M371.342 205.139C371.342 205.778 371.088 206.391 370.636 206.843C370.184 207.295 369.57 207.549 368.931 207.549H350.853C350.214 207.549 349.601 207.295 349.149 206.843C348.697 206.391 348.443 205.778 348.443 205.139V178.413C348.443 177.774 348.697 177.161 349.149 176.709C349.601 176.257 350.214 176.003 350.853 176.003H368.921C369.56 176.004 370.172 176.258 370.624 176.71C371.076 177.162 371.33 177.774 371.331 178.413L371.342 205.139Z" stroke="white" stroke-opacity="0.5" stroke-width="2.65625" stroke-linecap="round" stroke-linejoin="round"/>
<path d="M424.367 201.271C424.565 201.276 424.752 201.35 424.895 201.477C424.963 201.537 425.018 201.611 425.057 201.694C425.096 201.777 425.117 201.866 425.12 201.958V206.855C425.117 206.946 425.096 207.036 425.057 207.119C425.018 207.201 424.963 207.275 424.895 207.336C424.749 207.465 424.562 207.538 424.367 207.542H378.921C378.726 207.538 378.539 207.465 378.392 207.336C378.324 207.275 378.269 207.201 378.23 207.119C378.192 207.036 378.17 206.946 378.167 206.855V201.958C378.17 201.866 378.192 201.777 378.23 201.694C378.269 201.611 378.324 201.537 378.392 201.477C378.539 201.348 378.726 201.275 378.921 201.271H424.367Z" stroke="white" stroke-opacity="0.5" stroke-width="2.65625" stroke-linecap="round" stroke-linejoin="round"/>
<path d="M267.839 259.871V248.673" stroke="white" stroke-opacity="0.5" stroke-width="2.65625" stroke-linecap="round" stroke-linejoin="round"/>
<path d="M366.271 48.9092L341.815 55.588C341.379 55.7071 340.982 55.9386 340.663 56.2592C340.344 56.5799 340.114 56.9786 339.998 57.4155C339.881 57.8525 339.88 58.3124 339.997 58.7495C340.113 59.1866 340.342 59.5855 340.66 59.9066L362.655 81.7005C362.895 81.9406 363.179 82.1312 363.492 82.2612C363.805 82.3912 364.141 82.4581 364.48 82.4581C364.819 82.4581 365.155 82.3912 365.468 82.2612C365.781 82.1312 366.066 81.9406 366.305 81.7005C366.625 81.3803 366.855 80.9822 366.974 80.5455L373.502 55.6382L366.271 48.9092Z" stroke="white" stroke-opacity="0.5" stroke-width="2.65625" stroke-linejoin="round"/>
</svg>
