<svg width="84" height="84" viewBox="0 0 84 84" fill="none" xmlns="http://www.w3.org/2000/svg">
<rect x="0.599121" y="0.886719" width="82.9282" height="82.9282" rx="24.3907" fill="#14324C"/>
<g clip-path="url(#clip0_3_87)">
<path opacity="0.4" d="M69.0519 42.0379C69.0519 57.1171 56.8285 69.3405 41.7494 69.3405C26.6701 69.3405 14.4468 57.1171 14.4468 42.0379C14.4468 26.9615 26.6701 14.7354 41.7494 14.7354C56.8285 14.7354 69.0519 26.9615 69.0519 42.0379Z" fill="white"/>
<path d="M52.2878 33.0428L47.8648 47.0217C47.701 47.595 47.2368 48.0591 46.6634 48.2257L32.7392 52.5914C31.8108 52.8944 30.9099 51.9907 31.2102 51.0625L35.5786 37.0563C35.7425 36.4828 36.2065 36.046 36.78 35.8549L50.7588 31.4865C51.7145 31.1862 52.5881 32.0871 52.2878 33.0428Z" fill="white"/>
</g>
<defs>
<clipPath id="clip0_3_87">
<rect width="56.0985" height="56.0985" fill="white" transform="translate(14.0137 14.3018)"/>
</clipPath>
</defs>
</svg>
