<svg width="122" height="144" viewBox="0 0 122 144" fill="none" xmlns="http://www.w3.org/2000/svg">
<rect x="0.455768" y="20.249" width="102.899" height="102.899" rx="51.4496" transform="rotate(-11.3153 0.455768 20.249)" fill="#025692"/>
<rect x="0.455768" y="20.249" width="102.899" height="102.899" rx="51.4496" transform="rotate(-11.3153 0.455768 20.249)" stroke="#025692" stroke-width="0.100757"/>
<path d="M31.7986 60.9775L52.768 74.9542L83.4885 28.4701L92.5692 34.4788L55.5369 90.3669L26.3252 70.8964L31.7986 60.9775Z" fill="white"/>
<rect x="36.4075" y="116.223" width="24.9753" height="24.9753" rx="12.4877" transform="rotate(5.74067 36.4075 116.223)" fill="#14324C80"/>
<rect x="36.4075" y="116.223" width="24.9753" height="24.9753" rx="12.4877" transform="rotate(5.74067 36.4075 116.223)" stroke="#95969D" stroke-width="0.0246717"/>
<rect x="101.405" y="4.05731" width="13.9859" height="13.9859" rx="6.99293" transform="rotate(-11.3153 101.405 4.05731)" fill="#14324C80"/>
<rect x="101.405" y="4.05731" width="13.9859" height="13.9859" rx="6.99293" transform="rotate(-11.3153 101.405 4.05731)" stroke="#025692" stroke-width="0.0141475"/>
<rect x="16.852" y="104.217" width="13.9859" height="13.9859" rx="6.99293" transform="rotate(5.74067 16.852 104.217)" fill="#025692"/>
<rect x="16.852" y="104.217" width="13.9859" height="13.9859" rx="6.99293" transform="rotate(5.74067 16.852 104.217)" stroke="#025692" stroke-width="0.0141475"/>
</svg>
