<svg width="505" height="430" viewBox="0 0 505 430" fill="none" xmlns="http://www.w3.org/2000/svg">
<path d="M415.727 213.725L413.015 214.782L410.354 225.227L422.908 217.644L430.792 230.198L435.763 217.945C427.427 219.349 420.748 217.943 415.727 213.725Z" fill="white" fill-opacity="0.5"/>
<path d="M224.255 310.838C223.264 312.011 222.032 312.952 220.639 313.6C220.489 317.065 219.534 326.154 212.956 327.058H235.202C232.759 320.929 229.025 315.397 224.255 310.838Z" fill="white" fill-opacity="0.5"/>
<path d="M385.849 310.893C386.501 313.723 387.514 316.456 388.862 319.028L417.083 320.534C406.414 318.222 395.964 314.997 385.849 310.893Z" fill="white" fill-opacity="0.5"/>
<path d="M427.328 111.983C417.084 97.1189 428.885 77.6243 448.268 77.8357C461.776 77.9811 472.623 88.0799 472.523 100.433C472.422 112.786 461.325 122.634 447.816 122.528C442.775 122.507 437.851 121.005 433.655 118.21L423.311 122.227L427.328 111.983Z" fill="white" fill-opacity="0.5"/>
<path d="M75.811 252.153C75.9206 254.889 74.9407 257.556 73.0862 259.571C71.2317 261.585 68.654 262.782 65.9183 262.899C63.2228 262.674 60.7102 261.444 58.8785 259.454C57.0468 257.463 56.0295 254.858 56.0283 252.153C56.0277 249.447 57.0443 246.84 58.8764 244.85C60.7085 242.859 63.2221 241.63 65.9183 241.406C68.654 241.523 71.2317 242.72 73.0862 244.734C74.9407 246.749 75.9206 249.417 75.811 252.153Z" fill="white" fill-opacity="0.5"/>
<path d="M71.8981 236.869C70.3245 238.048 68.3854 238.635 66.4219 238.526C66.6155 236.568 67.4857 234.739 68.8825 233.354C70.4592 232.182 72.3945 231.597 74.3561 231.697C74.1632 233.654 73.294 235.483 71.8981 236.869Z" fill="white" fill-opacity="0.5"/>
<path d="M299.831 233.355C301.404 232.177 303.342 231.59 305.305 231.698C305.279 232.683 305.047 233.652 304.624 234.542C304.202 235.432 303.598 236.224 302.851 236.867C302.105 237.51 301.232 237.99 300.289 238.276C299.346 238.562 298.354 238.648 297.376 238.528C297.586 236.576 298.451 234.752 299.831 233.355Z" fill="white" fill-opacity="0.5"/>
<path d="M296.918 262.83C294.754 263.011 292.587 262.534 290.7 261.461C288.812 260.389 287.293 258.771 286.34 256.82C285.385 254.871 285.041 252.678 285.353 250.53C285.666 248.381 286.621 246.378 288.093 244.782C289.191 243.586 290.545 242.655 292.054 242.056C293.563 241.458 295.187 241.208 296.806 241.325C298.425 241.442 299.997 241.923 301.404 242.733C302.81 243.542 304.016 244.659 304.931 246C306.155 247.792 306.81 249.914 306.81 252.084C306.918 254.819 305.937 257.486 304.083 259.5C302.229 261.514 299.653 262.712 296.918 262.83Z" fill="white" fill-opacity="0.5"/>
<path d="M341.358 390.889C341.498 391.232 341.554 391.603 341.523 391.971C341.491 392.34 341.372 392.696 341.176 393.01C340.98 393.324 340.712 393.587 340.394 393.777C340.077 393.967 339.719 394.078 339.349 394.103C325.37 396.551 311.105 396.923 297.017 395.208C296.538 395.239 296.062 395.12 295.653 394.87C295.244 394.619 294.923 394.248 294.733 393.807C294.546 393.365 294.501 392.876 294.604 392.407C294.707 391.938 294.954 391.513 295.31 391.19L328.611 365.429C329.019 365.052 329.55 364.835 330.106 364.819C330.661 364.804 331.204 364.99 331.632 365.345C331.915 365.58 332.137 365.881 332.277 366.222L335.353 373.686C328.508 378.961 321.324 383.782 313.847 388.117C322.112 386.063 330.14 383.151 337.801 379.429L341.358 390.889Z" fill="white" fill-opacity="0.5"/>
<path d="M181.573 175.362C176.2 174.056 171.017 178.475 168.358 183.899C168.482 184.753 168.841 185.556 169.396 186.217C169.95 186.879 170.678 187.373 171.497 187.644C172.317 187.915 173.195 187.952 174.035 187.752C174.874 187.552 175.642 187.122 176.25 186.51C176.46 187.123 176.79 187.688 177.22 188.173C177.651 188.657 178.174 189.051 178.758 189.331C179.342 189.612 179.976 189.773 180.623 189.806C181.271 189.839 181.918 189.743 182.527 189.523C183.669 187.448 186.169 184.924 188.453 185.455L190.662 186.008C190.553 183.473 189.599 181.048 187.951 179.119C186.304 177.19 184.059 175.867 181.573 175.362Z" fill="#14324C"/>
<path d="M169.336 183.755C169.293 183.499 169.151 183.271 168.942 183.118C168.733 182.965 168.472 182.901 168.216 182.938C167.959 182.975 167.728 183.112 167.57 183.318C167.413 183.524 167.343 183.783 167.375 184.04L169.336 183.755ZM176.247 186.509L177.185 186.189C177.131 186.029 177.037 185.887 176.912 185.774C176.787 185.661 176.636 185.582 176.472 185.544C176.308 185.506 176.137 185.51 175.975 185.556C175.813 185.602 175.666 185.689 175.547 185.808L176.247 186.509ZM182.524 189.522L182.86 190.455C183.087 190.373 183.277 190.211 183.394 190L182.524 189.522ZM188.45 185.454L188.69 184.492L188.674 184.489L188.45 185.454ZM190.419 186.968C190.545 187 190.676 187.006 190.805 186.987C190.934 186.968 191.058 186.924 191.169 186.857C191.281 186.79 191.379 186.701 191.456 186.597C191.534 186.492 191.59 186.373 191.621 186.247C191.653 186.121 191.659 185.989 191.64 185.86C191.621 185.732 191.577 185.608 191.51 185.496C191.443 185.385 191.354 185.287 191.25 185.21C191.145 185.132 191.026 185.076 190.9 185.044L190.419 186.968ZM167.372 184.04C167.525 185.076 167.961 186.049 168.633 186.852L170.152 185.578C169.716 185.058 169.433 184.427 169.336 183.755L167.375 184.04H167.372ZM168.633 186.852C169.307 187.656 170.189 188.253 171.183 188.583L171.804 186.701C171.16 186.488 170.588 186.099 170.152 185.578L168.633 186.852ZM171.183 188.583C172.177 188.911 173.245 188.959 174.262 188.715L173.802 186.786C173.142 186.945 172.449 186.916 171.804 186.701L171.183 188.583ZM174.262 188.715C175.28 188.472 176.21 187.949 176.95 187.209L175.544 185.808C175.065 186.29 174.461 186.629 173.8 186.786L174.262 188.715ZM175.309 186.828C175.563 187.568 175.959 188.248 176.477 188.829L177.957 187.513C177.614 187.126 177.352 186.675 177.185 186.186L175.309 186.828ZM176.477 188.829C176.995 189.411 177.621 189.886 178.327 190.225L179.183 188.435C178.718 188.212 178.301 187.899 177.957 187.513L176.477 188.829ZM178.327 190.225C179.028 190.56 179.791 190.753 180.571 190.795L180.671 188.813C180.155 188.787 179.649 188.659 179.183 188.435L178.324 190.225H178.327ZM180.571 190.795C181.348 190.835 182.128 190.716 182.86 190.452L182.189 188.589C181.703 188.764 181.187 188.842 180.671 188.816L180.571 190.795ZM183.394 190C183.906 189.062 184.736 188.023 185.669 187.291C186.626 186.543 187.514 186.255 188.225 186.419L188.674 184.489C187.102 184.122 185.598 184.833 184.446 185.732C183.31 186.645 182.362 187.769 181.655 189.043L183.391 190H183.394ZM188.209 186.416L190.419 186.968L190.9 185.044L188.69 184.492L188.209 186.416Z" fill="white" fill-opacity="0.5"/>
<path d="M240.925 183.748C242.48 182.873 243.739 181.555 244.54 179.96C245.341 178.366 245.647 176.569 245.42 174.799C245.193 173.03 244.442 171.368 243.265 170.028C242.087 168.688 240.536 167.73 238.811 167.277C238.005 167.081 237.179 166.979 236.35 166.975C237.585 165.429 238.274 163.517 238.309 161.538C238.343 159.559 237.723 157.625 236.543 156.035C235.364 154.446 233.692 153.292 231.787 152.752C229.883 152.213 227.854 152.318 226.016 153.052C226.715 151.113 226.723 148.993 226.039 147.048C225.355 145.104 224.021 143.456 222.262 142.381C220.503 141.307 218.428 140.873 216.386 141.152C214.344 141.431 212.46 142.406 211.054 143.913C211.219 141.814 210.639 139.725 209.416 138.011C208.193 136.298 206.406 135.07 204.368 134.543L203.765 134.393C201.661 133.844 199.428 134.082 197.487 135.062C195.545 136.042 194.028 137.697 193.22 139.716C192.649 137.732 191.41 136.007 189.713 134.833C188.015 133.659 185.964 133.107 183.907 133.273C181.85 133.438 179.913 134.31 178.425 135.741C176.937 137.171 175.99 139.072 175.744 141.122C174.667 139.907 173.279 139.008 171.73 138.522C170.181 138.036 168.529 137.98 166.951 138.361C165.373 138.742 163.928 139.545 162.771 140.685C161.615 141.824 160.79 143.257 160.386 144.83C160.053 146.162 160.018 147.551 160.285 148.897C158.81 148.09 157.137 147.716 155.459 147.819C153.78 147.923 152.166 148.5 150.801 149.482C149.437 150.465 148.378 151.814 147.749 153.374C147.119 154.933 146.943 156.638 147.242 158.293C147.456 159.549 147.929 160.743 148.635 161.803C146.554 161.386 144.393 161.724 142.538 162.756C140.683 163.787 139.256 165.446 138.513 167.434C137.77 169.422 137.759 171.61 138.482 173.605C139.204 175.601 140.614 177.274 142.458 178.324C140.341 178.45 138.336 179.324 136.802 180.79C135.268 182.255 134.305 184.218 134.082 186.328C133.86 188.438 134.394 190.558 135.59 192.311C136.785 194.064 138.563 195.336 140.608 195.9C139.067 196.791 137.824 198.12 137.039 199.718C136.254 201.316 135.961 203.111 136.198 204.875C136.435 206.64 137.19 208.295 138.369 209.629C139.548 210.964 141.096 211.918 142.818 212.371C143.64 212.567 144.483 212.667 145.329 212.672C144.207 214.101 143.544 215.837 143.427 217.65C143.311 219.463 143.746 221.269 144.676 222.829C145.292 223.865 146.114 224.764 147.086 225.478C149.959 224.101 152.873 222.811 155.824 221.611C161.147 219.452 169.039 219.761 171.682 219.1C172.655 218.821 173.548 218.316 174.289 217.627C175.031 216.939 175.6 216.085 175.95 215.136C178.305 213.162 180.265 210.759 181.725 208.055C168.687 214.374 162.661 211.528 164.295 199.669C164.126 199.635 160.219 198.754 161.94 189.274C162.136 187.502 162.829 185.821 163.94 184.426C165.051 183.031 166.533 181.978 168.217 181.39C171.389 176.469 176.603 172.853 181.876 174.159C184.683 174.749 187.209 176.271 189.042 178.479C190.874 180.686 191.906 183.448 191.969 186.317L194.877 187.02C197.639 187.672 198.841 192.443 197.588 197.565C196.333 202.737 193.069 206.356 190.307 205.7L185.587 204.582C184.884 214.676 185.787 223.413 201.204 227.933C206.173 229.389 211.097 233.206 214.662 241.039C216.846 240.441 218.721 239.033 219.905 237.103C221.09 235.172 221.495 232.863 221.04 230.645C222.799 231.608 224.831 231.952 226.809 231.62C228.787 231.288 230.596 230.301 231.944 228.816C233.294 227.333 234.106 225.44 234.25 223.44C234.394 221.44 233.861 219.45 232.737 217.789C234.291 218.105 235.9 218.002 237.401 217.492C238.902 216.982 240.24 216.082 241.28 214.885C242.319 213.688 243.021 212.237 243.316 210.679C243.61 209.122 243.486 207.514 242.955 206.02C242.247 204.019 240.851 202.335 239.017 201.268C241.132 201.152 243.136 200.289 244.673 198.832C246.21 197.376 247.18 195.42 247.409 193.315C247.638 191.21 247.112 189.092 245.925 187.338C244.737 185.585 242.965 184.311 240.925 183.742V183.748Z" fill="#14324C"/>
<path d="M499.142 327.063H6.11549C5.50231 327.042 4.8912 327.145 4.31857 327.365C3.74594 327.586 3.22349 327.919 2.78234 328.345C2.34119 328.772 1.99037 329.282 1.75077 329.847C1.51117 330.412 1.3877 331.019 1.3877 331.633C1.3877 332.246 1.51117 332.854 1.75077 333.418C1.99037 333.983 2.34119 334.494 2.78234 334.921C3.22349 335.347 3.74594 335.68 4.31857 335.9C4.8912 336.121 5.50231 336.223 6.11549 336.203H499.142C500.354 336.201 501.515 335.719 502.372 334.863C503.228 334.006 503.71 332.844 503.712 331.633C503.71 330.421 503.228 329.26 502.372 328.403C501.515 327.546 500.354 327.065 499.142 327.063Z" fill="#14324C"/>
<path d="M442.697 182.288C442.905 179.788 442.3 177.287 440.971 175.16C439.639 173.033 437.655 171.393 435.315 170.487C433.312 169.457 430.994 169.222 428.825 169.827C426.656 170.432 424.795 171.833 423.614 173.751C423.363 174.253 423.012 174.906 423.112 174.755C428.483 176.336 433.657 178.52 438.537 181.265C439.945 180.956 441.005 181.622 442.697 182.288Z" fill="#14324C"/>
<path d="M453.548 180.679C452.996 180.615 452.438 180.632 451.891 180.729C452.401 180.233 452.8 179.633 453.061 178.97C453.322 178.307 453.438 177.597 453.403 176.885C453.368 176.174 453.181 175.478 452.856 174.845C452.531 174.211 452.075 173.654 451.518 173.21C450.773 172.616 449.875 172.246 448.928 172.142C447.912 172 446.877 172.176 445.965 172.644C446.47 171.989 446.782 171.207 446.869 170.385C447.011 169.046 446.615 167.706 445.77 166.658C445.35 166.14 444.831 165.71 444.244 165.393C443.657 165.075 443.013 164.878 442.35 164.811C441.296 164.681 440.228 164.874 439.286 165.363C439.936 164.265 440.146 162.961 439.872 161.714C439.599 160.467 438.864 159.371 437.814 158.645C437.118 158.165 436.311 157.867 435.47 157.78C434.587 157.683 433.693 157.806 432.869 158.14C432.045 158.473 431.317 159.005 430.75 159.689L425.678 169.732C427.201 168.85 428.916 168.352 430.675 168.282C432.434 168.212 434.183 168.572 435.771 169.33C438.383 170.392 440.579 172.274 442.028 174.692C443.477 177.11 444.101 179.934 443.806 182.738L446.317 183.742C448.476 184.596 449.224 187.971 448.325 191.827C450.119 191.295 451.948 190.892 453.799 190.622C454.882 190.47 455.884 189.964 456.649 189.183C457.414 188.402 457.899 187.389 458.028 186.303C458.11 185.639 458.059 184.964 457.877 184.32C457.695 183.675 457.386 183.074 456.968 182.55C456.55 182.028 456.033 181.593 455.446 181.272C454.858 180.951 454.213 180.749 453.548 180.679Z" fill="#14324C"/>
<path d="M418.342 196.953C418.172 197.38 418.133 197.848 418.23 198.298C418.327 198.747 418.555 199.158 418.887 199.477C419.133 199.719 419.43 199.902 419.757 200.015C420.083 200.127 420.43 200.166 420.773 200.127C421.116 200.089 421.446 199.975 421.74 199.793C422.033 199.611 422.282 199.366 422.469 199.076C422.656 198.786 422.777 198.458 422.821 198.115C422.865 197.773 422.833 197.425 422.726 197.097C422.62 196.769 422.441 196.468 422.204 196.218C421.967 195.967 421.677 195.772 421.355 195.647C420.782 195.43 420.146 195.444 419.583 195.688C419.021 195.932 418.575 196.386 418.342 196.953Z" fill="#14324C"/>
<path d="M435.366 102.998C436.125 102.998 436.853 102.697 437.39 102.16C437.927 101.623 438.229 100.895 438.229 100.136C438.229 99.3766 437.927 98.6486 437.39 98.1118C436.853 97.575 436.125 97.2734 435.366 97.2734C434.607 97.2734 433.879 97.575 433.342 98.1118C432.805 98.6486 432.504 99.3766 432.504 100.136C432.504 100.895 432.805 101.623 433.342 102.16C433.879 102.697 434.607 102.998 435.366 102.998Z" fill="#14324C"/>
<path d="M447.918 102.998C448.677 102.998 449.405 102.697 449.942 102.16C450.479 101.623 450.78 100.895 450.78 100.136C450.78 99.3766 450.479 98.6486 449.942 98.1118C449.405 97.575 448.677 97.2734 447.918 97.2734C447.159 97.2734 446.431 97.575 445.894 98.1118C445.357 98.6486 445.056 99.3766 445.056 100.136C445.056 100.895 445.357 101.623 445.894 102.16C446.431 102.697 447.159 102.998 447.918 102.998Z" fill="#14324C"/>
<path d="M460.478 102.998C461.237 102.998 461.965 102.697 462.502 102.16C463.038 101.623 463.34 100.895 463.34 100.136C463.34 99.3766 463.038 98.6486 462.502 98.1118C461.965 97.575 461.237 97.2734 460.478 97.2734C459.718 97.2734 458.99 97.575 458.454 98.1118C457.917 98.6486 457.615 99.3766 457.615 100.136C457.615 100.895 457.917 101.623 458.454 102.16C458.99 102.697 459.718 102.998 460.478 102.998Z" fill="#14324C"/>
<path d="M179.614 250.983C179.362 251.208 179.048 251.352 178.712 251.398C178.377 251.443 178.036 251.387 177.733 251.237C177.53 251.139 177.35 251.002 177.201 250.834C177.053 250.665 176.94 250.469 176.868 250.256C176.768 249.964 176.749 249.649 176.814 249.347C176.878 249.045 177.024 248.766 177.234 248.54C177.445 248.314 177.713 248.149 178.01 248.063C178.307 247.977 178.622 247.974 178.921 248.053C179.219 248.132 179.491 248.291 179.707 248.512C179.922 248.734 180.074 249.009 180.145 249.31C180.216 249.611 180.205 249.925 180.111 250.22C180.018 250.514 179.846 250.778 179.614 250.983Z" fill="#14324C"/>
<path d="M394.138 304.015C393.886 304.24 393.572 304.385 393.236 304.43C392.901 304.476 392.56 304.419 392.257 304.269C392.054 304.171 391.874 304.035 391.725 303.866C391.577 303.698 391.463 303.501 391.392 303.288C391.319 303.076 391.288 302.851 391.302 302.627C391.316 302.403 391.375 302.184 391.474 301.983C391.572 301.78 391.709 301.6 391.877 301.451C392.045 301.303 392.242 301.189 392.455 301.118C392.667 301.045 392.891 301.015 393.115 301.029C393.338 301.043 393.557 301.101 393.758 301.2C393.96 301.298 394.141 301.435 394.289 301.605C394.514 301.857 394.659 302.171 394.704 302.507C394.75 302.842 394.693 303.183 394.543 303.486C394.444 303.687 394.306 303.867 394.138 304.015Z" fill="#14324C"/>
<path d="M346.681 140.307C346.34 140.605 345.896 140.757 345.444 140.73C345.051 140.705 344.678 140.544 344.39 140.275C344.102 140.006 343.916 139.645 343.864 139.254C343.811 138.864 343.896 138.467 344.104 138.132C344.311 137.796 344.629 137.543 345.002 137.416C345.375 137.288 345.781 137.294 346.15 137.432C346.519 137.57 346.829 137.832 347.027 138.173C347.226 138.514 347.299 138.913 347.236 139.302C347.173 139.691 346.977 140.046 346.681 140.307Z" fill="#14324C"/>
<path d="M160.081 268.309C159.828 268.534 159.514 268.679 159.178 268.724C158.843 268.769 158.502 268.713 158.199 268.563C157.996 268.465 157.816 268.329 157.667 268.16C157.519 267.992 157.406 267.795 157.334 267.582C157.235 267.29 157.216 266.976 157.281 266.674C157.346 266.372 157.491 266.093 157.702 265.867C157.912 265.641 158.18 265.477 158.477 265.391C158.774 265.306 159.088 265.302 159.387 265.381C159.686 265.46 159.957 265.618 160.173 265.84C160.389 266.061 160.54 266.336 160.612 266.637C160.683 266.937 160.672 267.251 160.579 267.546C160.485 267.841 160.314 268.104 160.083 268.309H160.081Z" fill="#14324C"/>
<path d="M178.359 287.141C178.106 287.366 177.792 287.511 177.457 287.556C177.121 287.601 176.78 287.545 176.477 287.395C176.275 287.297 176.094 287.161 175.946 286.992C175.797 286.824 175.684 286.627 175.613 286.414C175.513 286.122 175.495 285.808 175.559 285.506C175.624 285.204 175.769 284.925 175.98 284.699C176.191 284.473 176.459 284.309 176.755 284.223C177.052 284.138 177.367 284.134 177.665 284.213C177.964 284.292 178.236 284.45 178.451 284.672C178.667 284.893 178.818 285.168 178.89 285.469C178.961 285.769 178.95 286.083 178.857 286.378C178.764 286.673 178.593 286.936 178.361 287.141H178.359Z" fill="#14324C"/>
<path d="M149.885 246.715L140.745 264.441L147.575 261.78C147.087 256.644 147.881 251.468 149.885 246.715Z" fill="#14324C"/>
<path d="M371.3 247.369C376.122 248.939 381.036 250.213 386.013 251.186C386.664 247.693 387.622 244.265 388.876 240.941L371.3 247.369Z" fill="#14324C"/>
<path d="M168.264 204.231C168.186 204.533 168.169 204.848 168.214 205.156C168.258 205.465 168.364 205.762 168.525 206.029C168.685 206.297 168.897 206.53 169.149 206.715C169.4 206.899 169.686 207.032 169.989 207.106C170.293 207.179 170.607 207.191 170.915 207.141C171.223 207.092 171.519 206.982 171.784 206.817C172.048 206.652 172.278 206.436 172.459 206.182C172.64 205.928 172.768 205.64 172.837 205.336C172.972 204.733 172.865 204.102 172.539 203.577C172.213 203.053 171.694 202.678 171.094 202.533C170.494 202.388 169.861 202.484 169.331 202.802C168.802 203.12 168.419 203.633 168.264 204.231Z" fill="#14324C"/>
<path d="M118.6 207.701H115.135C117.559 207.701 119.883 208.664 121.597 210.378C123.311 212.092 124.274 214.417 124.274 216.841V283.026C124.275 284.226 124.038 285.415 123.579 286.524C123.12 287.633 122.447 288.641 121.598 289.489C120.749 290.338 119.742 291.011 118.633 291.471C117.524 291.93 116.335 292.166 115.135 292.165H118.6C119.8 292.166 120.989 291.93 122.098 291.471C123.207 291.012 124.215 290.339 125.064 289.49C125.913 288.641 126.586 287.634 127.045 286.524C127.504 285.415 127.74 284.226 127.739 283.026V216.841C127.739 214.417 126.776 212.092 125.062 210.378C123.348 208.664 121.024 207.701 118.6 207.701Z" fill="#14324C"/>
<path d="M94.596 324.1H87.8167C86.7324 324.106 85.6849 323.708 84.8775 322.984C84.0701 322.26 83.5606 321.262 83.4479 320.184L80.5406 292.168H77.1338L80.9502 327.069H97.5746C97.5649 326.282 97.2477 325.532 96.6909 324.977C96.134 324.422 95.382 324.107 94.596 324.1Z" fill="#14324C"/>
<path d="M328.559 327.063H311.937L308.134 292.162H311.549L314.456 320.178C314.569 321.256 315.078 322.254 315.885 322.978C316.693 323.702 317.74 324.1 318.825 324.095H325.604C326.386 324.106 327.133 324.423 327.685 324.978C328.237 325.532 328.551 326.28 328.559 327.063Z" fill="#14324C"/>
<path d="M350.249 291.211C348.983 291.833 347.592 292.159 346.182 292.165C348.532 292.385 350.902 292.146 353.162 291.462L350.249 291.211Z" fill="#14324C"/>
<path d="M349.6 207.701H346.135C347.336 207.697 348.527 207.931 349.637 208.388C350.748 208.846 351.757 209.519 352.607 210.369C353.456 211.218 354.129 212.227 354.587 213.338C355.045 214.449 355.278 215.639 355.274 216.841V274.54C356.331 274.389 357.484 274.339 358.739 274.238V216.841C358.74 215.64 358.504 214.451 358.045 213.342C357.586 212.233 356.913 211.225 356.064 210.377C355.215 209.528 354.207 208.855 353.098 208.396C351.989 207.936 350.8 207.701 349.6 207.701Z" fill="#14324C"/>
<path d="M426.029 203.83L420.153 209.645C421.089 207.992 421.734 206.192 422.062 204.322C423.397 204.291 424.726 204.126 426.029 203.83Z" fill="#14324C"/>
<path d="M262.32 47.4081C262.311 48.1596 262.004 48.8768 261.468 49.4035C260.932 49.9302 260.21 50.2237 259.458 50.2202C259.085 50.2249 258.714 50.1559 258.368 50.0171C258.021 49.8783 257.706 49.6725 257.439 49.4114C257.171 49.1509 256.959 48.8393 256.814 48.4952C256.669 48.1511 256.595 47.7814 256.596 47.4081C256.605 46.6566 256.912 45.9394 257.448 45.4126C257.984 44.8859 258.707 44.5924 259.458 44.5959C259.831 44.5912 260.202 44.6602 260.548 44.799C260.895 44.9378 261.211 45.1436 261.477 45.4047C261.744 45.6661 261.955 45.9778 262.1 46.3217C262.245 46.6656 262.32 47.0349 262.32 47.4081Z" fill="#14324C"/>
<path d="M355.308 278.43V279.978L361.275 279.643C360.116 279.254 358.926 278.966 357.718 278.781C356.906 278.73 356.1 278.613 355.308 278.43Z" fill="#14324C"/>
<path d="M355.039 284.91L354.492 286.953L362.363 285.79L355.039 284.91Z" fill="#14324C"/>
<path d="M134.616 325.857C128.893 324.866 123.1 324.328 117.292 324.25C107.349 324.191 110.504 322.828 113.726 321.237C116.444 320.089 119.092 318.781 121.655 317.32C107.531 308.334 102.237 304.99 100.715 303.912C93.4915 298.798 95.0324 297.183 102.248 299.778C112.317 303.897 123.038 306.198 133.911 306.573" stroke="white" stroke-opacity="0.5" stroke-width="2.65626" stroke-linecap="round" stroke-linejoin="round"/>
<path d="M453.548 180.681C452.996 180.617 452.438 180.634 451.891 180.731C452.401 180.235 452.8 179.635 453.061 178.972C453.322 178.309 453.438 177.599 453.403 176.887C453.368 176.176 453.181 175.48 452.856 174.847C452.531 174.213 452.075 173.656 451.518 173.212C450.773 172.618 449.875 172.248 448.928 172.144C447.912 172.002 446.877 172.178 445.965 172.646C446.47 171.991 446.782 171.209 446.869 170.387C447.011 169.048 446.615 167.708 445.77 166.66C445.35 166.142 444.831 165.712 444.244 165.395C443.657 165.077 443.013 164.88 442.35 164.813C441.296 164.683 440.228 164.876 439.286 165.365C439.936 164.267 440.146 162.963 439.872 161.716C439.599 160.469 438.864 159.373 437.814 158.647C437.118 158.167 436.311 157.869 435.47 157.782C434.587 157.685 433.693 157.808 432.869 158.141C432.045 158.474 431.317 159.007 430.75 159.691L425.678 169.734C427.201 168.852 428.916 168.354 430.675 168.284C432.434 168.214 434.183 168.574 435.771 169.332C438.383 170.394 440.579 172.276 442.028 174.694C443.477 177.112 444.101 179.936 443.806 182.74L446.317 183.744C448.476 184.598 449.224 187.973 448.325 191.829C450.119 191.297 451.948 190.894 453.799 190.624C454.882 190.472 455.884 189.966 456.649 189.185C457.414 188.404 457.899 187.391 458.028 186.305C458.11 185.641 458.059 184.966 457.877 184.322C457.695 183.677 457.386 183.076 456.968 182.552C456.55 182.03 456.033 181.595 455.446 181.274C454.858 180.953 454.213 180.751 453.548 180.681Z" stroke="white" stroke-opacity="0.5" stroke-width="2.65626" stroke-linejoin="round"/>
<path d="M124.325 319.08C123.441 318.488 122.554 317.902 121.663 317.322" stroke="white" stroke-opacity="0.5" stroke-width="2.65626" stroke-linecap="round" stroke-linejoin="round"/>
<path d="M111.97 311.199C108.405 310.596 101.134 309.555 97.2066 309.19C91.429 308.661 92.1321 307.224 93.0386 306.88C96.2862 305.934 99.6493 305.444 103.032 305.424" stroke="white" stroke-opacity="0.5" stroke-width="2.65626" stroke-linecap="round" stroke-linejoin="round"/>
<path d="M254.486 292.217L247.402 327.067" stroke="white" stroke-opacity="0.5" stroke-width="2.65626" stroke-linecap="round" stroke-linejoin="round"/>
<path d="M195.534 225.826L246.454 228.638" stroke="white" stroke-opacity="0.5" stroke-width="2.65626" stroke-linecap="round" stroke-linejoin="round"/>
<path d="M247.006 286.739L221.245 284.73" stroke="white" stroke-opacity="0.5" stroke-width="2.65626" stroke-linecap="round" stroke-linejoin="round"/>
<path d="M451.133 227.938L476.492 229.193" stroke="white" stroke-opacity="0.5" stroke-width="2.65626" stroke-linecap="round" stroke-linejoin="round"/>
<path d="M476.487 229.191C478.514 229.291 480.453 230.049 482.012 231.348C483.57 232.648 484.663 234.42 485.125 236.396C485.428 237.71 485.447 239.071 485.175 240.39" stroke="white" stroke-opacity="0.5" stroke-width="2.65626" stroke-linecap="round" stroke-linejoin="round"/>
<path d="M485.183 240.389L477.601 277.449" stroke="white" stroke-opacity="0.5" stroke-width="2.65626" stroke-linecap="round" stroke-linejoin="round"/>
<path d="M169.825 181.586C167.188 187.47 165.298 193.662 164.2 200.015C162.948 209.942 167.258 213.36 176.704 210.135C176.718 211.278 176.622 212.42 176.416 213.545C176.292 214.788 175.806 215.967 175.018 216.936C174.231 217.905 173.175 218.622 171.984 218.997C175.156 222.211 182.278 223.115 191.117 223.015C185.492 218.294 185.693 211.967 186.195 204.778" stroke="white" stroke-opacity="0.5" stroke-width="2.65626" stroke-linecap="round" stroke-linejoin="round"/>
<path d="M169.824 181.585L168.569 181.284C166.359 180.731 163.101 184.4 161.84 189.569C160.64 194.493 161.689 199.06 164.2 200.014" stroke="white" stroke-opacity="0.5" stroke-width="2.65626" stroke-linecap="round" stroke-linejoin="round"/>
<path d="M181.083 201.531C178.604 203.027 175.85 204.016 172.985 204.439" stroke="white" stroke-opacity="0.5" stroke-width="2.65626" stroke-linecap="round" stroke-linejoin="round"/>
<path d="M168.264 204.233C168.186 204.535 168.169 204.85 168.214 205.158C168.258 205.467 168.364 205.764 168.525 206.031C168.685 206.299 168.897 206.532 169.149 206.717C169.4 206.901 169.686 207.034 169.989 207.107C170.293 207.181 170.607 207.193 170.915 207.143C171.223 207.094 171.519 206.983 171.784 206.819C172.048 206.654 172.278 206.438 172.459 206.184C172.64 205.93 172.768 205.642 172.837 205.338C172.972 204.735 172.865 204.104 172.539 203.579C172.213 203.055 171.694 202.68 171.094 202.535C170.494 202.39 169.861 202.486 169.331 202.804C168.802 203.122 168.419 203.635 168.264 204.233Z" stroke="white" stroke-opacity="0.5" stroke-width="2.65626" stroke-linecap="round" stroke-linejoin="round"/>
<path d="M187.297 195.145C186.404 198.813 186.581 204.908 190.009 205.74C192.766 206.412 196.038 202.777 197.29 197.605C199.14 189.925 195.459 184.076 190.863 188.416C189.074 190.285 187.84 192.615 187.297 195.145Z" stroke="white" stroke-opacity="0.5" stroke-width="2.65626" stroke-linecap="round" stroke-linejoin="round"/>
<path d="M194.58 187.01L188.203 185.453C185.441 184.8 182.177 188.416 180.921 193.588C179.666 198.76 180.871 203.481 183.633 204.134L190.061 205.69" stroke="white" stroke-opacity="0.5" stroke-width="2.65626" stroke-linecap="round" stroke-linejoin="round"/>
<path d="M54.0254 96.418V119.718" stroke="white" stroke-opacity="0.5" stroke-width="2.65626" stroke-linecap="round" stroke-linejoin="round"/>
<path d="M65.6706 108.074H42.3701" stroke="white" stroke-opacity="0.5" stroke-width="2.65626" stroke-linecap="round" stroke-linejoin="round"/>
<path d="M126.029 388.731C126.234 389.601 126.176 390.513 125.863 391.351C125.55 392.189 124.995 392.915 124.269 393.437C123.543 393.959 122.678 394.254 121.784 394.285C120.89 394.315 120.007 394.08 119.247 393.608C118.487 393.137 117.884 392.45 117.515 391.636C117.145 390.822 117.025 389.916 117.17 389.033C117.316 388.151 117.72 387.331 118.331 386.678C118.943 386.026 119.734 385.569 120.605 385.366C121.475 385.152 122.39 385.204 123.23 385.516C124.069 385.828 124.796 386.385 125.315 387.116C125.659 387.599 125.902 388.149 126.029 388.731Z" stroke="white" stroke-opacity="0.5" stroke-width="2.65626" stroke-linecap="round" stroke-linejoin="round"/>
<path d="M115.134 292.167C116.334 292.168 117.523 291.932 118.632 291.473C119.741 291.014 120.749 290.341 121.598 289.492C122.447 288.643 123.12 287.636 123.579 286.526C124.038 285.417 124.274 284.228 124.273 283.028V216.843C124.273 214.419 123.31 212.094 121.596 210.38C119.882 208.666 117.558 207.703 115.134 207.703H24.5906C22.1667 207.703 19.842 208.666 18.128 210.38C16.4141 212.094 15.4512 214.419 15.4512 216.843V283.028C15.4508 284.228 15.687 285.417 16.1462 286.526C16.6053 287.635 17.2785 288.643 18.1273 289.491C18.976 290.34 19.9837 291.013 21.0927 291.472C22.2017 291.932 23.3903 292.168 24.5906 292.167H115.131H115.134Z" stroke="white" stroke-opacity="0.5" stroke-width="2.65626" stroke-linecap="round" stroke-linejoin="round"/>
<path d="M80.9917 327.063H54.0254L57.3899 292.162H77.1752L80.9917 327.063Z" stroke="white" stroke-opacity="0.5" stroke-width="2.65626" stroke-linecap="round" stroke-linejoin="round"/>
<path d="M75.811 252.155C75.9206 254.89 74.9407 257.558 73.0862 259.573C71.2317 261.587 68.654 262.784 65.9183 262.901C63.2228 262.676 60.7102 261.446 58.8785 259.456C57.0468 257.465 56.0295 254.859 56.0283 252.155C56.0277 249.449 57.0443 246.842 58.8764 244.852C60.7085 242.861 63.2221 241.632 65.9183 241.408C68.654 241.525 71.2317 242.722 73.0862 244.736C74.9407 246.751 75.9206 249.419 75.811 252.155Z" stroke="white" stroke-opacity="0.5" stroke-width="2.65626" stroke-linecap="round" stroke-linejoin="round"/>
<path d="M71.8981 236.879C70.3245 238.058 68.3854 238.645 66.4219 238.536C66.6155 236.578 67.4857 234.749 68.8825 233.363C70.4592 232.192 72.3945 231.606 74.3561 231.706C74.1632 233.664 73.294 235.493 71.8981 236.879Z" stroke="white" stroke-opacity="0.5" stroke-width="2.65626" stroke-linecap="round" stroke-linejoin="round"/>
<path d="M311.935 327.063H285.019L288.383 292.162H308.118L311.935 327.063Z" stroke="white" stroke-opacity="0.5" stroke-width="2.65626" stroke-linecap="round" stroke-linejoin="round"/>
<path d="M355.274 279.91V278.504" stroke="white" stroke-opacity="0.5" stroke-width="2.65626" stroke-linecap="round" stroke-linejoin="round"/>
<path d="M350.249 291.213C348.983 291.835 347.592 292.162 346.181 292.167H255.591C254.39 292.168 253.201 291.932 252.092 291.473C250.983 291.014 249.975 290.341 249.127 289.492C248.278 288.643 247.605 287.636 247.145 286.526C246.686 285.417 246.45 284.228 246.451 283.028V216.843C246.451 214.419 247.414 212.094 249.128 210.38C250.842 208.666 253.167 207.703 255.591 207.703H346.131C347.331 207.703 348.52 207.939 349.629 208.398C350.738 208.857 351.746 209.53 352.594 210.379C353.443 211.228 354.116 212.236 354.576 213.345C355.035 214.454 355.271 215.642 355.271 216.843V274.541" stroke="white" stroke-opacity="0.5" stroke-width="2.65626" stroke-linejoin="round"/>
<path d="M299.831 233.357C301.404 232.179 303.342 231.592 305.305 231.7C305.279 232.685 305.047 233.654 304.624 234.544C304.202 235.434 303.598 236.226 302.851 236.869C302.105 237.512 301.232 237.992 300.289 238.278C299.346 238.564 298.354 238.65 297.376 238.53C297.586 236.577 298.451 234.754 299.831 233.357Z" stroke="white" stroke-opacity="0.5" stroke-width="2.65626" stroke-linecap="round" stroke-linejoin="round"/>
<path d="M296.918 262.84C294.754 263.021 292.587 262.544 290.7 261.471C288.812 260.399 287.293 258.781 286.34 256.83C285.385 254.881 285.041 252.688 285.353 250.539C285.666 248.391 286.621 246.387 288.093 244.791C289.191 243.596 290.545 242.665 292.054 242.066C293.563 241.468 295.187 241.218 296.806 241.335C298.425 241.452 299.997 241.933 301.404 242.743C302.81 243.552 304.016 244.669 304.931 246.01C306.155 247.802 306.81 249.924 306.81 252.094C306.918 254.829 305.937 257.496 304.083 259.51C302.229 261.524 299.653 262.721 296.918 262.84Z" stroke="white" stroke-opacity="0.5" stroke-width="2.65626" stroke-linecap="round" stroke-linejoin="round"/>
<path d="M499.142 336.203C500.327 336.162 501.45 335.663 502.274 334.811C503.098 333.958 503.559 332.819 503.559 331.633C503.559 330.447 503.098 329.308 502.274 328.455C501.45 327.603 500.327 327.104 499.142 327.063H6.11549C5.50231 327.042 4.8912 327.145 4.31857 327.365C3.74594 327.586 3.22349 327.919 2.78234 328.345C2.34119 328.772 1.99037 329.282 1.75077 329.847C1.51117 330.412 1.3877 331.019 1.3877 331.633C1.3877 332.246 1.51117 332.854 1.75077 333.419C1.99037 333.983 2.34119 334.494 2.78234 334.921C3.22349 335.347 3.74594 335.68 4.31857 335.9C4.8912 336.121 5.50231 336.223 6.11549 336.203H499.142Z" stroke="white" stroke-opacity="0.5" stroke-width="2.65626" stroke-linecap="round" stroke-linejoin="round"/>
<path d="M75.1037 193.021C72.8493 191.435 70.2301 189.744 68.9377 189.02C65.2315 186.932 61.4636 184.956 57.6389 183.094C54.2427 181.448 38.8553 174.013 35.4934 173.101C26.2985 170.611 26.3831 173.001 33.8865 177.47C39.0169 180.461 43.7855 184.033 48.0978 188.116C51.3426 191.375 54.3459 194.866 57.0839 198.561" stroke="white" stroke-opacity="0.5" stroke-width="2.65626" stroke-linecap="round" stroke-linejoin="round"/>
<path d="M76.4678 192.689C72.2999 187.366 72.0038 187.062 68.8851 182.596C66.0783 178.576 64.992 176.586 62.7587 173.055C57.2084 164.306 57.5811 168.435 58.0013 172.151C58.2974 174.862 62.32 184.554 57.5996 183.148" stroke="white" stroke-opacity="0.5" stroke-width="2.65626" stroke-linecap="round" stroke-linejoin="round"/>
<path d="M57.1847 198.66C53.3683 194.492 44.2341 189.624 40.0054 187.161C36.7413 185.255 31.5478 183.159 27.8027 181.135C26.9543 180.675 26.8539 178.904 32.8244 180.13C34.9864 180.574 38.8504 181.335 40.6582 181.888" stroke="white" stroke-opacity="0.5" stroke-width="2.65626" stroke-linecap="round" stroke-linejoin="round"/>
<path d="M56.1797 197.655C52.8003 195.63 49.2356 193.931 45.5338 192.583C42.2195 191.325 36.1486 189.908 32.4775 188.666C31.5736 188.362 31.2195 186.758 37.2349 186.858C37.6868 186.858 38.5907 186.908 39.5951 186.958" stroke="white" stroke-opacity="0.5" stroke-width="2.65626" stroke-linecap="round" stroke-linejoin="round"/>
<path d="M127.74 269.567L147.576 261.783" stroke="white" stroke-opacity="0.5" stroke-width="2.65626" stroke-linecap="round" stroke-linejoin="round"/>
<path d="M52.364 207.703L50.9685 203.836C49.9113 200.572 81.2491 189.474 82.3539 192.736L87.9702 207.703" stroke="white" stroke-opacity="0.5" stroke-width="2.65626" stroke-linecap="round" stroke-linejoin="round"/>
<path d="M190.61 267.004L191.715 297.937" stroke="white" stroke-opacity="0.5" stroke-width="2.65626" stroke-linecap="round" stroke-linejoin="round"/>
<path d="M212.96 327.062C219.002 326.233 220.519 318.415 220.644 312.299C221.701 261.147 220.281 233.147 200.557 227.684C197.109 226.83 193.887 225.236 191.116 223.014" stroke="white" stroke-opacity="0.5" stroke-width="2.65626" stroke-linecap="round" stroke-linejoin="round"/>
<path d="M135.421 327.066C133.011 327.066 133.112 300.602 135.572 300.602C135.572 300.602 183.78 299.196 201.758 296.986" stroke="white" stroke-opacity="0.5" stroke-width="2.65626" stroke-linecap="round" stroke-linejoin="round"/>
<path d="M158.926 299.744C149.676 280.159 147.252 265.385 147.477 257.763C147.626 253.972 148.424 250.235 149.837 246.715" stroke="white" stroke-opacity="0.5" stroke-width="2.65626" stroke-linecap="round" stroke-linejoin="round"/>
<path d="M220.652 313.608C222.044 312.961 223.278 312.018 224.268 310.846C229.03 315.422 232.775 320.948 235.263 327.066" stroke="white" stroke-opacity="0.5" stroke-width="2.65626" stroke-linecap="round" stroke-linejoin="round"/>
<path d="M224.258 310.843C222.5 303.959 221.49 296.904 221.245 289.803" stroke="white" stroke-opacity="0.5" stroke-width="2.65626" stroke-linecap="round" stroke-linejoin="round"/>
<path d="M434.564 199.467C428.387 216.892 439.485 221.562 444.808 224.776C446.967 226.082 457.407 229.401 464.041 239.69C470.715 250.04 481.953 288.403 483.174 308.688C483.768 318.581 479.505 324.744 469.716 326.465C459.519 328.259 413.222 323.15 382.791 309.592C378.321 308.135 389.017 275.344 393.487 276.8L456.408 291.916" stroke="white" stroke-opacity="0.5" stroke-width="2.65626" stroke-linecap="round" stroke-linejoin="round"/>
<path d="M422.979 174.921L421.806 174.358C419.747 173.565 416.031 176.668 414.123 181.494C412.259 186.18 412.719 190.765 415.05 192.002" stroke="white" stroke-opacity="0.5" stroke-width="2.65626" stroke-linecap="round" stroke-linejoin="round"/>
<path d="M431.173 196.074L430.75 196.251C427.997 197.373 425.033 197.884 422.062 197.747" stroke="white" stroke-opacity="0.5" stroke-width="2.65626" stroke-linecap="round" stroke-linejoin="round"/>
<path d="M438.428 200.721C435.277 197.594 437.725 188.066 442.545 184.599C446.814 181.536 449.766 185.5 448.36 191.83C447.669 195.013 446.036 197.915 443.674 200.158C442.046 201.561 439.958 202.238 438.428 200.721Z" stroke="white" stroke-opacity="0.5" stroke-width="2.65626" stroke-linecap="round" stroke-linejoin="round"/>
<path d="M439.225 201.299L433.312 198.963C430.701 197.906 430.125 193.13 432.057 188.267C433.595 184.395 437.179 180.132 440.25 181.337L446.226 183.697" stroke="white" stroke-opacity="0.5" stroke-width="2.65626" stroke-linecap="round" stroke-linejoin="round"/>
<path d="M422.984 174.922C411.384 194.771 411.355 204.727 422.112 204.346C421.359 209.632 417.444 217.276 402.678 215.034C391.984 213.414 371.544 207.954 344.678 194.697" stroke="white" stroke-opacity="0.5" stroke-width="2.65626" stroke-linecap="round" stroke-linejoin="round"/>
<path d="M341.168 200.881C353.923 178.283 360.406 165.933 373.658 147.651C376.005 144.413 346.457 123.544 344.081 126.772C326.272 150.865 300.731 188.723 300.836 206.695" stroke="white" stroke-opacity="0.5" stroke-width="2.65626" stroke-linecap="round" stroke-linejoin="round"/>
<path d="M357.932 242.352C366.937 246.252 376.327 249.198 385.947 251.139" stroke="white" stroke-opacity="0.5" stroke-width="2.65626" stroke-linecap="round" stroke-linejoin="round"/>
<path d="M382.942 278.059C383.495 262.793 385.905 248.482 388.868 240.949" stroke="white" stroke-opacity="0.5" stroke-width="2.65626" stroke-linecap="round" stroke-linejoin="round"/>
<path d="M439.235 262.836L446.065 289.401" stroke="white" stroke-opacity="0.5" stroke-width="2.65626" stroke-linecap="round" stroke-linejoin="round"/>
<path d="M361.255 279.608C360.293 279.264 359.301 279.012 358.292 278.855C343.148 277.158 350.006 274.071 362.257 274.185C368.951 274.372 375.585 275.541 381.941 277.65C384.476 278.643 386.955 279.767 389.374 281.014" stroke="white" stroke-opacity="0.5" stroke-width="2.65626" stroke-linecap="round" stroke-linejoin="round"/>
<path d="M381.936 303.916C373.803 300.993 365.388 298.923 356.827 297.739C351.454 297.253 351.309 295.503 357.279 294.124C362.671 292.876 368.169 292.136 373.7 291.914" stroke="white" stroke-opacity="0.5" stroke-width="2.65626" stroke-linecap="round" stroke-linejoin="round"/>
<path d="M368.578 292.215C362.653 291.461 353.915 291.718 350.802 291.311C345.479 290.616 346.031 288.895 352.057 287.544C357.93 286.262 363.923 285.605 369.934 285.586" stroke="white" stroke-opacity="0.5" stroke-width="2.65626" stroke-linecap="round" stroke-linejoin="round"/>
<path d="M363.258 285.891C357.483 284.833 351.364 285.098 348.243 284.685C342.92 283.99 343.021 281.675 349.097 280.721C355.289 279.74 361.57 279.437 367.828 279.817" stroke="white" stroke-opacity="0.5" stroke-width="2.65626" stroke-linecap="round" stroke-linejoin="round"/>
<path d="M367.026 274.491C364.214 271.779 362.105 269.469 364.119 268.264C365.876 267.207 374.313 275.595 379.284 276.801" stroke="white" stroke-opacity="0.5" stroke-width="2.65626" stroke-linecap="round" stroke-linejoin="round"/>
<path d="M363.105 106.362C363.853 105.371 364.916 104.663 366.118 104.354C368.883 104.066 371.901 110.131 369.583 117.109C368.333 120.878 365.415 122.08 364.763 115.903" stroke="white" stroke-opacity="0.5" stroke-width="2.65626" stroke-linecap="round" stroke-linejoin="round"/>
<path d="M368.724 105.929C372.424 103.346 376.708 108.997 374.557 116.699C373.499 120.415 371.139 120.774 369.984 115.702" stroke="white" stroke-opacity="0.5" stroke-width="2.65626" stroke-linecap="round" stroke-linejoin="round"/>
<path d="M347.133 126.898C350.892 121.708 353.998 116.075 356.383 110.126C357.499 107.821 358.894 105.81 361.104 105.607C363.815 105.358 366.477 110.277 364.418 117.056C363.564 119.868 359.798 118.713 360.189 111.281" stroke="white" stroke-opacity="0.5" stroke-width="2.65626" stroke-linecap="round" stroke-linejoin="round"/>
<path d="M372.245 144.48C377.518 137.048 391.539 118.109 390.323 117.313C388.774 116.298 378.723 122.887 378.723 122.887C378.723 122.887 368.077 122.737 367.726 129.516" stroke="white" stroke-opacity="0.5" stroke-width="2.65626" stroke-linecap="round" stroke-linejoin="round"/>
<path d="M378.94 122.741C385.251 106.637 384.49 91.1969 383.242 93.6046C380.903 98.0977 376.86 110.808 374.558 116.696" stroke="white" stroke-opacity="0.5" stroke-width="2.65626" stroke-linecap="round" stroke-linejoin="round"/>
<path d="M357.331 114.045C358.38 113.929 359.437 114.156 360.344 114.698" stroke="white" stroke-opacity="0.5" stroke-width="2.65626" stroke-linecap="round" stroke-linejoin="round"/>
<path d="M341.365 390.891C341.505 391.234 341.561 391.605 341.53 391.973C341.498 392.342 341.379 392.698 341.183 393.012C340.987 393.326 340.719 393.588 340.401 393.779C340.084 393.969 339.726 394.08 339.356 394.105C325.377 396.553 311.112 396.925 297.024 395.21C296.545 395.24 296.069 395.122 295.66 394.872C295.251 394.621 294.93 394.25 294.74 393.809C294.553 393.367 294.508 392.878 294.611 392.409C294.714 391.94 294.961 391.515 295.316 391.192L328.618 365.431C329.026 365.054 329.557 364.837 330.112 364.821C330.668 364.806 331.21 364.992 331.639 365.347C331.922 365.582 332.143 365.883 332.284 366.224L335.36 373.688C328.515 378.963 321.331 383.784 313.854 388.119C322.119 386.065 330.147 383.153 337.808 379.431L341.365 390.891Z" stroke="white" stroke-opacity="0.5" stroke-width="2.65626" stroke-linecap="round" stroke-linejoin="round"/>
<path d="M427.328 111.985C417.084 97.1208 428.885 77.6262 448.268 77.8376C461.776 77.983 472.623 88.0818 472.523 100.435C472.422 112.788 461.325 122.636 447.816 122.53C442.775 122.509 437.851 121.007 433.655 118.212L423.311 122.229L427.328 111.985Z" stroke="white" stroke-opacity="0.5" stroke-width="2.65626" stroke-linecap="round" stroke-linejoin="round"/>
<path d="M438.229 100.138C438.227 100.897 437.926 101.624 437.391 102.162C437.125 102.429 436.81 102.64 436.462 102.784C436.115 102.928 435.742 103.001 435.366 103C434.611 102.988 433.889 102.683 433.355 102.149C432.821 101.615 432.515 100.893 432.504 100.138C432.506 99.3789 432.807 98.6515 433.342 98.1132C433.608 97.8475 433.923 97.6367 434.271 97.4929C434.618 97.3492 434.99 97.2752 435.366 97.2754C436.122 97.287 436.843 97.5923 437.377 98.1266C437.912 98.6609 438.217 99.3822 438.229 100.138Z" stroke="white" stroke-opacity="0.5" stroke-width="2.65626" stroke-linecap="round" stroke-linejoin="round"/>
<path d="M450.78 100.138C450.778 100.897 450.477 101.624 449.943 102.162C449.677 102.429 449.362 102.64 449.014 102.784C448.667 102.928 448.294 103.001 447.918 103C447.162 102.988 446.441 102.683 445.907 102.149C445.373 101.615 445.067 100.893 445.056 100.138C445.058 99.3789 445.359 98.6515 445.893 98.1132C446.159 97.8475 446.475 97.6367 446.822 97.4929C447.17 97.3492 447.542 97.2752 447.918 97.2754C448.674 97.287 449.395 97.5923 449.929 98.1266C450.463 98.6609 450.769 99.3822 450.78 100.138Z" stroke="white" stroke-opacity="0.5" stroke-width="2.65626" stroke-linecap="round" stroke-linejoin="round"/>
<path d="M463.34 100.138C463.34 100.704 463.172 101.257 462.858 101.728C462.543 102.199 462.096 102.566 461.573 102.782C461.05 102.999 460.474 103.056 459.919 102.945C459.364 102.835 458.854 102.562 458.454 102.162C458.053 101.761 457.781 101.251 457.67 100.696C457.56 100.141 457.616 99.5654 457.833 99.0424C458.05 98.5193 458.417 98.0723 458.887 97.7578C459.358 97.4433 459.911 97.2754 460.478 97.2754C461.233 97.287 461.954 97.5923 462.489 98.1266C463.023 98.6609 463.328 99.3822 463.34 100.138Z" stroke="white" stroke-opacity="0.5" stroke-width="2.65626" stroke-linecap="round" stroke-linejoin="round"/>
<path d="M259.408 35.4573C259.458 31.8919 260.814 29.2807 265.384 23.3551C267.551 20.8971 269.19 18.0163 270.199 14.8976C270.679 13.4051 270.809 11.822 270.578 10.2714C270.346 8.72073 269.761 7.24418 268.867 5.95638C267.975 4.66719 266.798 3.60065 265.428 2.83937C264.058 2.07809 262.53 1.64252 260.965 1.56639C258.761 1.44275 256.58 2.05628 254.764 3.31017C252.948 4.56405 251.602 6.38689 250.937 8.49099C250.497 9.88753 250.372 11.3642 250.57 12.8149" stroke="white" stroke-opacity="0.5" stroke-width="2.65626" stroke-linecap="round" stroke-linejoin="round"/>
<path d="M410.56 215.236C405.808 187.46 393.666 161.476 375.408 140.012" stroke="white" stroke-opacity="0.5" stroke-width="2.65626" stroke-linecap="round" stroke-linejoin="round"/>
<path d="M129.399 336.2C144.632 356.518 164.553 372.852 187.462 383.808C210.372 394.764 235.591 400.018 260.97 399.121C286.349 398.226 311.135 391.204 333.213 378.657C355.291 366.109 374.007 348.407 387.764 327.061" stroke="white" stroke-opacity="0.5" stroke-width="2.65626" stroke-linecap="round" stroke-linejoin="round"/>
<path d="M121.312 324.404C121.865 325.308 122.417 326.212 123.02 327.066" stroke="white" stroke-opacity="0.5" stroke-width="2.65626" stroke-linecap="round" stroke-linejoin="round"/>
<path d="M114.979 313.105C116.037 315.164 117.094 317.173 118.246 319.184" stroke="white" stroke-opacity="0.5" stroke-width="2.65626" stroke-linecap="round" stroke-linejoin="round"/>
<path d="M106.211 292.162C107.366 295.627 108.672 299.034 110.078 302.406" stroke="white" stroke-opacity="0.5" stroke-width="2.65626" stroke-linecap="round" stroke-linejoin="round"/>
<path d="M352.687 118.048C321.09 93.2252 281.2 81.4205 241.183 85.0506C201.167 88.6807 164.052 107.471 137.438 137.574C119.813 157.508 107.527 181.582 101.726 207.55" stroke="white" stroke-opacity="0.5" stroke-width="2.65626" stroke-linecap="round" stroke-linejoin="round"/>
<path d="M171.978 219C169.616 219.793 161.303 219.365 155.809 221.611C146.519 225.428 139.388 229.445 127.74 234.969" stroke="white" stroke-opacity="0.5" stroke-width="2.65626" stroke-linecap="round" stroke-linejoin="round"/>
<path d="M166.856 219.602L163.994 229.394L179.059 222.163L187.496 235.118L195.53 225.828" stroke="white" stroke-opacity="0.5" stroke-width="2.65626" stroke-linecap="round" stroke-linejoin="round"/>
<path d="M179.064 222.164C167.665 244.561 161.187 261.233 171.833 299.146" stroke="white" stroke-opacity="0.5" stroke-width="2.65626" stroke-linecap="round" stroke-linejoin="round"/>
<path d="M149.887 300.102C146.673 300.102 146.673 326.817 149.887 326.817" stroke="white" stroke-opacity="0.5" stroke-width="2.65626" stroke-linecap="round" stroke-linejoin="round"/>
<path d="M365.466 326.866L388.867 319.082" stroke="white" stroke-opacity="0.5" stroke-width="2.65626" stroke-linecap="round" stroke-linejoin="round"/>
<path d="M388.866 319.083C387.492 316.564 386.494 313.857 385.903 311.049" stroke="white" stroke-opacity="0.5" stroke-width="2.65626" stroke-linecap="round" stroke-linejoin="round"/>
<path d="M388.864 319.082L417.136 320.589" stroke="white" stroke-opacity="0.5" stroke-width="2.65626" stroke-linecap="round" stroke-linejoin="round"/>
<path d="M413.022 214.779L410.36 225.224L422.915 217.642L430.748 230.196L435.77 217.943" stroke="white" stroke-opacity="0.5" stroke-width="2.65626" stroke-linecap="round" stroke-linejoin="round"/>
<path d="M435.766 217.942C427.43 219.35 420.751 217.942 415.729 213.713" stroke="white" stroke-opacity="0.5" stroke-width="2.65626" stroke-linecap="round" stroke-linejoin="round"/>
<path d="M401.373 214.832C396.904 232.659 438.584 240.945 448.727 226.683" stroke="white" stroke-opacity="0.5" stroke-width="2.65626" stroke-linecap="round" stroke-linejoin="round"/>
<path d="M397.462 214.076C391.335 236.975 439.995 247.571 452.348 228.639" stroke="white" stroke-opacity="0.5" stroke-width="2.65626" stroke-linecap="round" stroke-linejoin="round"/>
<path d="M414.114 235.971C409.206 250.11 406.595 264.945 406.381 279.91" stroke="white" stroke-opacity="0.5" stroke-width="2.65626" stroke-linecap="round" stroke-linejoin="round"/>
<path d="M414.118 281.769C408.996 280.363 399.153 315.864 404.275 317.272" stroke="white" stroke-opacity="0.5" stroke-width="2.65626" stroke-linecap="round" stroke-linejoin="round"/>
<path d="M330.163 145.986C332.373 142.722 363.005 163.311 360.795 166.575" stroke="white" stroke-opacity="0.5" stroke-width="2.65626" stroke-linecap="round" stroke-linejoin="round"/>
<path d="M140.697 264.441L149.837 246.715" stroke="white" stroke-opacity="0.5" stroke-width="2.65626" stroke-linecap="round" stroke-linejoin="round"/>
<path d="M371.293 247.319L388.869 240.941" stroke="white" stroke-opacity="0.5" stroke-width="2.65626" stroke-linecap="round" stroke-linejoin="round"/>
<path d="M118.6 207.703H115.135C117.559 207.703 119.883 208.666 121.597 210.38C123.311 212.094 124.274 214.419 124.274 216.843V283.028C124.275 284.228 124.038 285.417 123.579 286.526C123.12 287.635 122.447 288.643 121.598 289.491C120.749 290.34 119.742 291.013 118.633 291.472C117.524 291.932 116.335 292.168 115.135 292.167H118.6C119.8 292.168 120.989 291.932 122.098 291.473C123.207 291.014 124.215 290.341 125.064 289.492C125.913 288.643 126.586 287.636 127.045 286.526C127.504 285.417 127.74 284.228 127.739 283.028V216.843C127.739 214.419 126.776 212.094 125.062 210.38C123.348 208.666 121.024 207.703 118.6 207.703Z" stroke="white" stroke-opacity="0.5" stroke-width="2.65626" stroke-linejoin="round"/>
<path d="M97.5587 327.063H80.9397L77.1338 292.162H80.5485L83.4558 320.178C83.568 321.256 84.0773 322.255 84.8848 322.979C85.6923 323.703 86.7402 324.1 87.8246 324.095H94.6039C95.3868 324.104 96.1348 324.42 96.6872 324.975C97.2397 325.53 97.5526 326.28 97.5587 327.063Z" stroke="white" stroke-opacity="0.5" stroke-width="2.65626" stroke-linejoin="round"/>
<path d="M328.559 327.063H311.937L308.134 292.162H311.549L314.456 320.178C314.569 321.256 315.078 322.254 315.885 322.978C316.693 323.702 317.74 324.1 318.825 324.095H325.604C326.386 324.106 327.133 324.423 327.685 324.978C328.237 325.532 328.551 326.28 328.559 327.063Z" stroke="white" stroke-opacity="0.5" stroke-width="2.65626" stroke-linejoin="round"/>
<path d="M346.188 292.167C348.522 292.384 350.875 292.151 353.121 291.482" stroke="white" stroke-opacity="0.5" stroke-width="2.65626" stroke-linecap="round" stroke-linejoin="round"/>
<path d="M355.274 216.843V274.541C356.331 274.391 357.484 274.341 358.739 274.24V216.843C358.74 215.642 358.504 214.453 358.045 213.344C357.586 212.235 356.913 211.227 356.064 210.379C355.215 209.53 354.207 208.857 353.098 208.397C351.989 207.938 350.8 207.702 349.6 207.703H346.135C347.336 207.699 348.527 207.933 349.637 208.39C350.748 208.848 351.757 209.521 352.607 210.371C353.456 211.22 354.129 212.229 354.587 213.34C355.045 214.451 355.278 215.641 355.274 216.843Z" stroke="white" stroke-opacity="0.5" stroke-width="2.65626" stroke-linejoin="round"/>
<path d="M422.106 204.342C423.425 204.302 424.737 204.131 426.023 203.832L420.309 209.499" stroke="white" stroke-opacity="0.5" stroke-width="2.65626" stroke-linecap="round" stroke-linejoin="round"/>
<path d="M262.32 47.41C262.311 48.1615 262.004 48.8787 261.468 49.4054C260.932 49.9321 260.21 50.2257 259.458 50.2221C259.085 50.2269 258.714 50.1579 258.368 50.0191C258.021 49.8803 257.706 49.6745 257.439 49.4134C257.171 49.1528 256.959 48.8413 256.814 48.4971C256.669 48.153 256.595 47.7834 256.596 47.41C256.605 46.6585 256.912 45.9413 257.448 45.4146C257.984 44.8879 258.707 44.5943 259.458 44.5979C259.831 44.5932 260.202 44.6622 260.548 44.801C260.895 44.9398 261.211 45.1456 261.477 45.4066C261.744 45.668 261.955 45.9797 262.1 46.3237C262.245 46.6676 262.32 47.0369 262.32 47.41Z" stroke="white" stroke-opacity="0.5" stroke-width="2.65626" stroke-linejoin="round"/>
<path d="M354.316 287.092C354.631 286.442 354.864 285.76 355.014 285.055" stroke="white" stroke-opacity="0.5" stroke-width="2.65626" stroke-linecap="round" stroke-linejoin="round"/>
<path d="M176.704 210.132C178.401 209.538 180.061 208.842 181.675 208.047C180.235 210.721 178.311 213.105 176.001 215.077" stroke="white" stroke-opacity="0.5" stroke-width="2.65626" stroke-linecap="round" stroke-linejoin="round"/>
<path d="M391.677 394.605V403.111" stroke="white" stroke-opacity="0.5" stroke-width="2.65626" stroke-linecap="round" stroke-linejoin="round"/>
<path d="M408.229 411.156H399.724" stroke="white" stroke-opacity="0.5" stroke-width="2.65626" stroke-linecap="round" stroke-linejoin="round"/>
<path d="M391.677 427.7V419.197" stroke="white" stroke-opacity="0.5" stroke-width="2.65626" stroke-linecap="round" stroke-linejoin="round"/>
<path d="M375.131 411.156H383.639" stroke="white" stroke-opacity="0.5" stroke-width="2.65626" stroke-linecap="round" stroke-linejoin="round"/>
<path d="M399.723 411.154C398.132 411.159 396.574 410.689 395.251 409.805C393.927 408.921 392.897 407.663 392.291 406.19C391.887 405.214 391.68 404.168 391.681 403.111C391.684 404.168 391.479 405.214 391.075 406.19C390.672 407.167 390.079 408.053 389.331 408.799C387.823 410.307 385.777 411.154 383.644 411.154C385.776 411.153 387.822 411.999 389.331 413.506C390.08 414.252 390.672 415.139 391.076 416.116C391.479 417.093 391.685 418.14 391.681 419.196C391.68 418.14 391.888 417.094 392.292 416.118C392.696 415.142 393.288 414.255 394.035 413.508C394.782 412.761 395.669 412.169 396.645 411.765C397.621 411.361 398.667 411.153 399.723 411.154Z" stroke="white" stroke-opacity="0.5" stroke-width="2.65626" stroke-linecap="round" stroke-linejoin="round"/>
<path d="M240.925 183.75C242.48 182.875 243.739 181.556 244.54 179.962C245.341 178.368 245.647 176.571 245.42 174.801C245.193 173.032 244.442 171.37 243.265 170.03C242.087 168.69 240.536 167.732 238.811 167.279C238.005 167.083 237.179 166.981 236.35 166.977C237.585 165.431 238.274 163.519 238.309 161.54C238.343 159.561 237.723 157.627 236.543 156.037C235.364 154.448 233.692 153.294 231.787 152.754C229.883 152.215 227.854 152.32 226.016 153.054C226.715 151.115 226.723 148.994 226.039 147.05C225.355 145.106 224.021 143.458 222.262 142.383C220.503 141.309 218.428 140.875 216.386 141.154C214.344 141.433 212.46 142.408 211.054 143.915C211.219 141.816 210.639 139.727 209.416 138.013C208.193 136.3 206.406 135.072 204.368 134.545L203.765 134.395C201.661 133.846 199.428 134.084 197.487 135.064C195.545 136.044 194.028 137.699 193.22 139.718C192.649 137.734 191.41 136.009 189.713 134.835C188.015 133.66 185.964 133.109 183.907 133.275C181.85 133.44 179.913 134.312 178.425 135.743C176.937 137.173 175.99 139.074 175.744 141.124C174.667 139.909 173.279 139.01 171.73 138.524C170.181 138.037 168.529 137.982 166.951 138.363C165.373 138.744 163.928 139.547 162.771 140.687C161.615 141.826 160.79 143.259 160.386 144.832C160.053 146.164 160.018 147.553 160.285 148.899C158.81 148.092 157.137 147.718 155.459 147.821C153.78 147.925 152.166 148.502 150.801 149.484C149.437 150.467 148.378 151.816 147.749 153.376C147.119 154.935 146.943 156.64 147.242 158.295C147.456 159.55 147.929 160.745 148.635 161.805C146.554 161.388 144.393 161.726 142.538 162.758C140.683 163.789 139.256 165.448 138.513 167.436C137.77 169.424 137.759 171.612 138.482 173.607C139.204 175.603 140.614 177.276 142.458 178.326C140.341 178.452 138.336 179.326 136.802 180.792C135.268 182.257 134.305 184.22 134.082 186.33C133.86 188.44 134.394 190.56 135.59 192.313C136.785 194.066 138.563 195.338 140.608 195.902C139.067 196.793 137.824 198.121 137.039 199.719C136.254 201.317 135.961 203.113 136.198 204.877C136.435 206.642 137.19 208.297 138.369 209.631C139.548 210.966 141.096 211.92 142.818 212.373C143.64 212.569 144.483 212.669 145.329 212.674C144.207 214.103 143.544 215.839 143.427 217.652C143.311 219.465 143.746 221.27 144.676 222.831C145.292 223.867 146.114 224.766 147.086 225.48C149.959 224.103 152.873 222.813 155.824 221.613C161.147 219.454 169.039 219.763 171.682 219.102C172.655 218.823 173.548 218.318 174.289 217.629C175.031 216.941 175.6 216.087 175.95 215.138C178.305 213.164 180.265 210.761 181.725 208.057C168.687 214.376 162.661 211.53 164.295 199.671C164.126 199.637 160.219 198.756 161.94 189.276C162.136 187.504 162.829 185.823 163.94 184.428C165.051 183.033 166.533 181.98 168.217 181.392C171.389 176.471 176.603 172.855 181.876 174.161C184.683 174.751 187.209 176.273 189.042 178.481C190.874 180.688 191.906 183.45 191.969 186.319L194.877 187.022C197.639 187.674 198.841 192.445 197.588 197.567C196.333 202.739 193.069 206.358 190.307 205.702L185.587 204.584C184.884 214.678 185.787 223.415 201.204 227.935C206.173 229.391 211.097 233.208 214.662 241.041C216.846 240.443 218.721 239.035 219.905 237.105C221.09 235.174 221.495 232.865 221.04 230.647C222.799 231.61 224.831 231.954 226.809 231.622C228.787 231.29 230.596 230.302 231.944 228.818C233.294 227.335 234.106 225.442 234.25 223.442C234.394 221.442 233.861 219.452 232.737 217.791C234.291 218.107 235.9 218.004 237.401 217.494C238.902 216.984 240.24 216.084 241.28 214.887C242.319 213.69 243.021 212.239 243.316 210.681C243.61 209.124 243.486 207.516 242.955 206.022C242.247 204.021 240.851 202.337 239.017 201.27C241.132 201.154 243.136 200.291 244.673 198.834C246.21 197.378 247.18 195.422 247.409 193.317C247.638 191.212 247.112 189.094 245.925 187.34C244.737 185.587 242.965 184.313 240.925 183.744V183.75Z" stroke="white" stroke-opacity="0.5" stroke-width="2.65626" stroke-linejoin="round"/>
</svg>
