<svg width="64" height="64" viewBox="0 0 64 64" fill="none" xmlns="http://www.w3.org/2000/svg">
<rect x="0.5" y="0.5" width="63" height="63" rx="7.5" fill="url(#paint0_linear_3_342)"/>
<rect x="0.5" y="0.5" width="63" height="63" rx="7.5" stroke="url(#paint1_linear_3_342)"/>
<path d="M31.9998 25.5811C30.7303 25.5811 29.4893 25.9575 28.4337 26.6628C27.3782 27.3681 26.5555 28.3706 26.0697 29.5435C25.5838 30.7163 25.4567 32.0069 25.7044 33.252C25.9521 34.4972 26.5634 35.6409 27.4611 36.5385C28.3587 37.4362 29.5025 38.0476 30.7476 38.2952C31.9927 38.5429 33.2833 38.4158 34.4562 37.93C35.629 37.4441 36.6315 36.6214 37.3368 35.5659C38.0421 34.5103 38.4186 33.2693 38.4186 31.9998C38.4186 30.2974 37.7423 28.6648 36.5385 27.4611C35.3348 26.2573 33.7022 25.5811 31.9998 25.5811ZM31.9998 36.1673C31.1756 36.1673 30.3698 35.9229 29.6845 35.465C28.9991 35.007 28.465 34.3561 28.1495 33.5946C27.8341 32.8331 27.7516 31.9952 27.9124 31.1868C28.0732 30.3784 28.4701 29.6358 29.0529 29.0529C29.6358 28.4701 30.3784 28.0732 31.1868 27.9124C31.9952 27.7516 32.8331 27.8341 33.5946 28.1495C34.3562 28.465 35.007 28.9991 35.465 29.6845C35.9229 30.3698 36.1673 31.1756 36.1673 31.9998C36.1675 32.5471 36.0598 33.0891 35.8504 33.5948C35.641 34.1005 35.3341 34.56 34.947 34.947C34.56 35.3341 34.1005 35.641 33.5948 35.8504C33.0891 36.0598 32.5471 36.1675 31.9998 36.1673Z" fill="#2085BE"/>
<path d="M44.4252 26.8462C44.4053 25.8093 44.2087 24.7834 43.844 23.8125C43.5304 22.9781 43.0386 22.2222 42.4027 21.5975C41.7788 20.9619 41.0237 20.4701 40.1902 20.1563C39.2189 19.7918 38.1925 19.5956 37.1552 19.5763C35.8227 19.515 35.3965 19.5 32.0015 19.5C28.6065 19.5 28.1802 19.5137 26.8477 19.575C25.8104 19.5948 24.784 19.7914 23.8127 20.1563C22.9792 20.4701 22.2242 20.9619 21.6002 21.5975C20.9634 22.2219 20.4707 22.9779 20.1565 23.8125C19.7921 24.7834 19.596 25.8094 19.5765 26.8462C19.514 28.1787 19.5015 28.605 19.5015 32C19.5015 35.395 19.514 35.8212 19.5765 37.1537C19.596 38.1906 19.7921 39.2166 20.1565 40.1875C20.4704 41.022 20.9626 41.778 21.599 42.4025C22.2233 43.0382 22.9788 43.5301 23.8127 43.8437C24.7841 44.2082 25.8104 44.4044 26.8477 44.4237C28.1802 44.485 28.6065 44.5 32.0002 44.5C35.394 44.5 35.8215 44.4862 37.154 44.425C38.1909 44.4051 39.2168 44.2085 40.1877 43.8437C41.0187 43.5235 41.7734 43.0327 42.4032 42.403C43.0329 41.7732 43.5237 41.0185 43.844 40.1875C44.2087 39.2166 44.4053 38.1907 44.4252 37.1537C44.4852 35.82 44.5002 35.395 44.5002 32C44.5002 28.605 44.4852 28.1787 44.4252 26.8462ZM42.1752 37.0512C42.1647 37.8437 42.0198 38.6286 41.7465 39.3725C41.5393 39.9121 41.221 40.4022 40.8123 40.8109C40.4036 41.2196 39.9136 41.5378 39.374 41.745C38.6308 42.0211 37.8455 42.1666 37.0527 42.175C35.734 42.235 35.339 42.2475 32.0002 42.2475C28.6615 42.2475 28.2677 42.235 26.9502 42.175C26.1575 42.1666 25.3721 42.0211 24.629 41.745C24.086 41.5446 23.5948 41.2251 23.1915 40.81C22.7764 40.4067 22.4569 39.9155 22.2565 39.3725C21.9804 38.6293 21.8349 37.844 21.8265 37.0512C21.7665 35.7337 21.754 35.3387 21.754 32.0012C21.754 28.6637 21.7665 28.2675 21.8265 26.9487C21.8374 26.1562 21.9828 25.3713 22.2565 24.6275C22.4569 24.0845 22.7764 23.5933 23.1915 23.19C23.5948 22.7749 24.086 22.4554 24.629 22.255C25.3721 21.9789 26.1575 21.8334 26.9502 21.825C28.2677 21.7625 28.664 21.75 32.0002 21.75C35.3365 21.75 35.734 21.7637 37.0527 21.8237C37.8452 21.8346 38.6301 21.98 39.374 22.2537C39.9136 22.4609 40.4036 22.7792 40.8123 23.1879C41.221 23.5966 41.5393 24.0866 41.7465 24.6262C42.0226 25.3694 42.168 26.1547 42.1765 26.9475C42.2365 28.2662 42.249 28.66 42.249 31.9987C42.249 35.3375 42.2365 35.7312 42.1765 37.05" fill="#2085BE"/>
<defs>
<linearGradient id="paint0_linear_3_342" x1="32" y1="0" x2="32" y2="64" gradientUnits="userSpaceOnUse">
<stop stop-color="#242424"/>
<stop offset="1" stop-color="#242424" stop-opacity="0"/>
</linearGradient>
<linearGradient id="paint1_linear_3_342" x1="32" y1="0" x2="32" y2="64" gradientUnits="userSpaceOnUse">
<stop stop-color="#2E2E2E"/>
<stop offset="1" stop-color="#2E2E2E" stop-opacity="0"/>
</linearGradient>
</defs>
</svg>
