<svg width="84" height="84" viewBox="0 0 84 84" fill="none" xmlns="http://www.w3.org/2000/svg">
<rect x="0.599121" y="0.733398" width="82.9282" height="82.9282" rx="24.3907" fill="#14324C"/>
<g clip-path="url(#clip0_3_76)">
<path d="M73.1457 41.8845C73.1457 59.2376 59.1034 73.2799 41.7503 73.2799C24.3973 73.2799 10.355 59.2376 10.355 41.8845C10.355 24.5316 24.3973 10.4893 41.7503 10.4893C45.4607 10.4893 49.0568 11.1172 52.3676 12.3159C64.4691 16.6542 73.1457 28.2419 73.1457 41.8845Z" fill="white" fill-opacity="0.4"/>
<path d="M72.516 35.5493C70.2899 24.7609 62.5267 15.9701 52.3659 12.3169C52.3089 12.3169 52.2518 12.2598 52.2518 12.2598L52.3659 18.3105C52.3659 19.8517 51.4526 21.2788 50.0257 21.9067C46.8861 23.2767 43.7465 22.5346 42.4337 26.1308C41.349 28.8136 44.2032 36.1773 47.6853 36.1773C52.0806 36.1773 54.1927 27.3296 55.5055 27.3296C56.3617 27.3296 57.6747 30.0124 59.2159 32.0103C60.2434 33.3803 61.8417 34.1224 63.5542 34.1224H66.4653L72.516 35.5493Z" fill="white"/>
<path d="M47.3444 48.7341C45.7461 50.9603 54.1372 57.7531 56.9342 56.4402C61.6721 54.214 64.7545 49.5904 64.7545 47.8779C64.7545 46.1653 62.5283 42.8547 54.9364 47.9921C52.8243 49.5332 48.9998 46.4508 47.3444 48.7341Z" fill="white"/>
<path d="M34.615 42.5135C36.2704 40.8581 36.7841 38.2894 35.9278 36.8053C33.1879 31.8391 26.6805 34.465 26.0527 39.6595C25.7101 42.799 23.8264 45.9955 22.2281 47.6509C20.6298 49.2493 17.4903 48.393 16.634 46.0526C15.6636 43.4268 19.0315 42.4565 18.5178 39.0886C18.4036 38.1753 17.4332 37.7186 16.2345 37.5474L10.5833 37.7758C10.4691 39.0886 10.355 40.4586 10.355 41.8856C10.355 56.8983 20.8581 69.4564 34.9575 72.5389V66.9448C34.9575 66.9448 34.9575 66.9448 33.5305 65.5178C32.1034 64.0907 35.0145 61.6932 35.8137 58.6678C38.04 50.1055 30.6192 49.763 30.3909 47.8794C30.1626 45.7672 32.9596 44.1689 34.615 42.5135Z" fill="white"/>
</g>
<defs>
<clipPath id="clip0_3_76">
<rect width="63.4157" height="63.4157" fill="white" transform="translate(10.354 10.4893)"/>
</clipPath>
</defs>
</svg>
