<svg width="83" height="84" viewBox="0 0 83 84" fill="none" xmlns="http://www.w3.org/2000/svg">
<rect x="0.0249023" y="0.886719" width="82.9282" height="82.9282" rx="24.3907" fill="#14324C"/>
<g clip-path="url(#clip0_3_96)">
<path d="M38.1477 62.8614C50.8897 62.8614 61.2191 52.4671 61.2191 39.6451C61.2191 26.823 50.8897 16.4287 38.1477 16.4287C25.4056 16.4287 15.0762 26.823 15.0762 39.6451C15.0762 52.4671 25.4056 62.8614 38.1477 62.8614Z" fill="white"/>
<path opacity="0.4" d="M65.1792 69.9673C64.2829 69.9383 63.4307 69.5697 62.7933 68.935L57.3297 62.5487C56.1583 61.4774 56.0624 59.6569 57.1149 58.4671C57.6075 57.9687 58.2772 57.6885 58.9759 57.6885C59.6744 57.6885 60.3442 57.9687 60.8369 58.4671L67.7082 63.9652C68.698 64.9782 69.0034 66.4822 68.488 67.8047C67.9725 69.1273 66.7326 70.0215 65.3223 70.0875L65.1792 69.9673Z" fill="white"/>
</g>
<defs>
<clipPath id="clip0_3_96">
<rect width="54.879" height="54.879" fill="white" transform="translate(14.6597 15.5205)"/>
</clipPath>
</defs>
</svg>
