<svg width="24" height="23" viewBox="0 0 24 23" fill="none" xmlns="http://www.w3.org/2000/svg">
<path fill-rule="evenodd" clip-rule="evenodd" d="M15.8182 4.5H18C18.8284 4.5 19.5 5.17157 19.5 6V7.32057C19.5 8.149 18.8284 8.82057 18 8.82057H15.8182C14.9898 8.82057 14.3182 8.149 14.3182 7.32057V6C14.3182 5.17157 14.9898 4.5 15.8182 4.5ZM12.8182 6C12.8182 4.34315 14.1613 3 15.8182 3H18C19.6569 3 21 4.34315 21 6V7.32057C21 8.97743 19.6569 10.3206 18 10.3206H15.8182C14.1613 10.3206 12.8182 8.97743 12.8182 7.32057V6ZM6 13.2847H8.18182C9.01025 13.2847 9.68182 13.9562 9.68182 14.7847V16.1052C9.68182 16.9337 9.01025 17.6052 8.18182 17.6052H6C5.17157 17.6052 4.5 16.9337 4.5 16.1052V14.7847C4.5 13.9562 5.17157 13.2847 6 13.2847ZM3 14.7847C3 13.1278 4.34315 11.7847 6 11.7847H8.18182C9.83867 11.7847 11.1818 13.1278 11.1818 14.7847V16.1052C11.1818 17.7621 9.83867 19.1052 8.18182 19.1052H6C4.34314 19.1052 3 17.7621 3 16.1052V14.7847ZM7.09091 8.82057C8.68308 8.82057 9.68182 7.70084 9.68182 6.66029C9.68182 5.61973 8.68308 4.5 7.09091 4.5C5.49874 4.5 4.5 5.61973 4.5 6.66029C4.5 7.70084 5.49874 8.82057 7.09091 8.82057ZM7.09091 10.3206C9.35026 10.3206 11.1818 8.68181 11.1818 6.66029C11.1818 4.63877 9.35026 3 7.09091 3C4.83156 3 3 4.63877 3 6.66029C3 8.68181 4.83156 10.3206 7.09091 10.3206ZM19.5 15.445C19.5 16.4855 18.5013 17.6052 16.9091 17.6052C15.3169 17.6052 14.3182 16.4855 14.3182 15.445C14.3182 14.4044 15.3169 13.2847 16.9091 13.2847C18.5013 13.2847 19.5 14.4044 19.5 15.445ZM21 15.445C21 17.4665 19.1684 19.1052 16.9091 19.1052C14.6498 19.1052 12.8182 17.4665 12.8182 15.445C12.8182 13.4234 14.6498 11.7847 16.9091 11.7847C19.1684 11.7847 21 13.4234 21 15.445Z" fill="current"/>
</svg>
