<svg width="24" height="24" viewBox="0 0 24 24" fill="none" xmlns="http://www.w3.org/2000/svg">
<path d="M12 16.5C11.5858 16.5 11.25 16.1642 11.25 15.75V13.75H9.25C8.83579 13.75 8.5 13.4142 8.5 13C8.5 12.5858 8.83579 12.25 9.25 12.25H11.25V10.25C11.25 9.83579 11.5858 9.5 12 9.5C12.4143 9.5 12.75 9.83579 12.75 10.25V12.25H14.75C15.1643 12.25 15.5 12.5858 15.5 13C15.5 13.4142 15.1643 13.75 14.75 13.75H12.75V15.75C12.75 16.1642 12.4143 16.5 12 16.5Z" fill="current"/>
<path fill-rule="evenodd" clip-rule="evenodd" d="M19.4143 6.41422C19.7893 6.78929 20 7.298 20 7.82843V20C20 21.1046 19.1046 22 18 22H6C4.89543 22 4 21.1046 4 20V4C4 2.89543 4.89543 2 6 2H14.1716C14.702 2 15.2108 2.21071 15.5858 2.58579L19.4143 6.41422ZM18.5 7.82843V20C18.5 20.2762 18.2762 20.5 18 20.5H6C5.72386 20.5 5.5 20.2762 5.5 20V4C5.5 3.72386 5.72386 3.5 6 3.5H14.1716C14.3042 3.5 14.4314 3.55268 14.5252 3.64645L18.3536 7.47488C18.4474 7.56865 18.5 7.69583 18.5 7.82843Z" fill="current"/>
</svg>
