<svg width="24" height="24" viewBox="0 0 24 24" fill="none" xmlns="http://www.w3.org/2000/svg">
<path fill-rule="evenodd" clip-rule="evenodd" d="M22.3119 10.0111C22.5199 11.0959 21.6046 11.9998 20.5 11.9998H14C12.8954 11.9998 12 11.1044 12 9.99976V3.49979C12 2.39522 12.9039 1.4799 13.9887 1.68787C18.1928 2.49384 21.506 5.80697 22.3119 10.0111ZM20.8388 10.2935C20.1484 6.69269 17.3071 3.85136 13.7063 3.16105C13.6795 3.1559 13.6693 3.15913 13.6663 3.1601C13.6604 3.16195 13.6419 3.16912 13.6166 3.19304C13.561 3.2454 13.5 3.35311 13.5 3.49979V9.99976C13.5 10.276 13.7239 10.4998 14 10.4998H20.5C20.6467 10.4998 20.7544 10.4388 20.8068 10.3833C20.8307 10.3579 20.8377 10.3399 20.8396 10.3339C20.8406 10.3308 20.8439 10.3204 20.8388 10.2935Z" fill="current"/>
<path d="M9.62681 2.79902C10.0803 2.6824 10.5 3.04166 10.5 3.50987C10.5 3.87576 10.2384 4.18615 9.88544 4.28263C6.49326 5.20992 4 8.31389 4 12.0002C4 16.4185 7.58172 20.0002 12 20.0002C15.6863 20.0002 18.7903 17.507 19.7176 14.1148C19.814 13.7619 20.1244 13.5002 20.4903 13.5002C20.9585 13.5002 21.3178 13.92 21.2012 14.3734C20.1472 18.4718 16.4273 21.5002 12 21.5002C6.7533 21.5002 2.5 17.2469 2.5 12.0002C2.5 7.57292 5.52848 3.85299 9.62681 2.79902Z" fill="current"/>
</svg>
