<svg width="24" height="24" viewBox="0 0 24 24" fill="none" xmlns="http://www.w3.org/2000/svg">
<g clip-path="url(#clip0_2443_13366)">
<path d="M12.0007 1.3335C9.89099 1.3335 7.8287 1.95909 6.07457 3.13115C4.32045 4.30322 2.95328 5.96913 2.14594 7.91821C1.33861 9.86728 1.12737 12.012 1.53895 14.0811C1.95052 16.1503 2.96642 18.0509 4.45818 19.5426C5.94994 21.0344 7.85056 22.0503 9.91969 22.4619C11.9888 22.8734 14.1335 22.6622 16.0826 21.8549C18.0317 21.0475 19.6976 19.6804 20.8697 17.9262C22.0417 16.1721 22.6673 14.1098 22.6673 12.0002C22.6673 9.17119 21.5435 6.45808 19.5431 4.45769C17.5427 2.4573 14.8296 1.3335 12.0007 1.3335ZM2.66732 12.0002C2.69643 9.60236 3.64733 7.30774 5.32281 5.5922C6.99829 3.87666 9.2698 2.87182 11.6663 2.78608C14.0627 2.70034 16.4002 3.54027 18.194 5.13169C19.9878 6.72311 21.1003 8.9439 21.3007 11.3335H11.6607L5.53399 18.7135C4.62961 17.8445 3.90965 16.8022 3.41711 15.6487C2.92458 14.4953 2.66957 13.2544 2.66732 12.0002ZM12.0007 21.3335C10.0465 21.3325 8.14255 20.7142 6.56066 19.5668L12.2873 12.6668H21.3007C21.1322 15.0191 20.0795 17.2204 18.3542 18.8282C16.6289 20.436 14.359 21.3311 12.0007 21.3335Z" fill="current"/>
</g>
<defs>
<clipPath id="clip0_2443_13366">
<rect width="24" height="24" fill="white"/>
</clipPath>
</defs>
</svg>
