<svg width="83" height="84" viewBox="0 0 83 84" fill="none" xmlns="http://www.w3.org/2000/svg">
<rect x="0.0249023" y="0.733398" width="82.9282" height="82.9282" rx="24.3907" fill="#14324C"/>
<g clip-path="url(#clip0_3_63)">
<path d="M41.7732 49.6777C32.8454 49.6777 25.3125 51.1365 25.3125 56.767C25.3125 62.3997 32.8941 63.8072 41.7732 63.8072C50.7011 63.8072 58.234 62.3484 58.234 56.718C58.234 51.0853 50.6524 49.6777 41.7732 49.6777Z" fill="white"/>
<path opacity="0.4" d="M41.7721 44.3123C47.8175 44.3123 52.6649 39.4369 52.6649 33.3568C52.6649 27.2743 47.8175 22.4014 41.7721 22.4014C35.7268 22.4014 30.8794 27.2743 30.8794 33.3568C30.8794 39.4369 35.7268 44.3123 41.7721 44.3123Z" fill="white"/>
<path opacity="0.4" d="M65.4234 35.9093C66.9874 29.7569 62.4019 24.2314 56.5627 24.2314C55.9278 24.2314 55.3208 24.3014 54.7276 24.4202C54.6488 24.4389 54.5607 24.4785 54.5144 24.5484C54.4611 24.6369 54.5005 24.7558 54.5584 24.8327C56.3125 27.3076 57.3204 30.3209 57.3204 33.5556C57.3204 36.6551 56.3959 39.5448 54.7739 41.9429C54.6071 42.1899 54.7554 42.5231 55.0497 42.5745C55.4575 42.6467 55.8745 42.684 56.3009 42.6956C60.5528 42.8075 64.3691 40.0551 65.4234 35.9093Z" fill="white"/>
<path d="M69.8766 50.3966C69.0981 48.7279 67.2189 47.5837 64.3619 47.022C63.0133 46.6912 59.3639 46.2251 55.9693 46.288C55.9183 46.2949 55.8905 46.3299 55.8859 46.3532C55.8789 46.3858 55.8928 46.4418 55.96 46.4768C57.5287 47.2574 63.5926 50.6529 62.8303 57.8144C62.7978 58.1243 63.0458 58.3923 63.3539 58.3457C64.8462 58.1314 68.6856 57.3017 69.8766 54.7172C70.5347 53.3515 70.5347 51.7645 69.8766 50.3966Z" fill="white"/>
<path opacity="0.4" d="M29.0836 24.4202C28.4927 24.299 27.8833 24.2314 27.2484 24.2314C21.4094 24.2314 16.8238 29.7569 18.3902 35.9094C19.4421 40.0552 23.2584 42.8074 27.5103 42.6956C27.9366 42.684 28.356 42.6443 28.7615 42.5745C29.0558 42.5231 29.2041 42.1898 29.0372 41.9429C27.4153 39.5425 26.4907 36.6551 26.4907 33.5556C26.4907 30.3186 27.501 27.3053 29.255 24.8327C29.3107 24.7558 29.3524 24.6369 29.2968 24.5484C29.2504 24.4761 29.1647 24.4389 29.0836 24.4202Z" fill="white"/>
<path d="M19.4467 47.0201C16.5897 47.5818 14.7128 48.726 13.9342 50.3947C13.2739 51.7626 13.2739 53.3496 13.9342 54.7177C15.1252 57.2998 18.9647 58.1318 20.4569 58.3438C20.7651 58.3904 21.0107 58.1248 20.9783 57.8125C20.2159 50.6533 26.2798 47.2579 27.8508 46.4772C27.9157 46.4399 27.9296 46.3863 27.9226 46.3513C27.918 46.328 27.8925 46.293 27.8415 46.2884C24.4447 46.2232 20.7975 46.6893 19.4467 47.0201Z" fill="white"/>
</g>
<defs>
<clipPath id="clip0_3_63">
<rect width="57.318" height="42.6836" fill="white" transform="translate(13.439 21.4668)"/>
</clipPath>
</defs>
</svg>
