<svg width="70" height="60" viewBox="0 0 70 60" fill="none" xmlns="http://www.w3.org/2000/svg">
<path d="M46.708 5.70129C47.1948 5.70129 47.5897 6.09639 47.5898 6.58313C47.5898 7.06999 47.1949 7.46497 46.708 7.46497C42.5957 7.46507 38.905 10.2158 37.7334 14.1525C37.6047 14.5865 37.1701 14.8481 36.7324 14.7687L36.7285 14.7736L36.6367 14.7462C36.1703 14.6071 35.9039 14.1163 36.043 13.6495C37.4067 9.06692 41.654 5.7014 46.708 5.70129Z" fill="#025692" stroke="#F9FFF9" stroke-width="0.3"/>
<path d="M56.9522 42.4384H52.5618C52.1578 42.4384 51.8301 42.1107 51.8301 41.7067C51.8301 41.3027 52.1578 40.9749 52.5618 40.9749H56.9522C63.004 40.9749 67.9281 36.0509 67.9281 29.999C67.9281 23.9471 63.004 19.023 56.9522 19.023H56.8466C56.6344 19.023 56.4326 18.9311 56.2936 18.7706C56.1546 18.6101 56.0918 18.3974 56.1222 18.1873C56.1875 17.7315 56.2204 17.2737 56.2204 16.8279C56.2204 11.5829 51.9528 7.31531 46.7079 7.31531C44.6674 7.31531 42.7215 7.95296 41.0803 9.15978C40.7196 9.42478 40.2074 9.30718 39.9989 8.91047C35.3509 0.0596993 23.2107 -1.12887 16.9166 6.57053C14.2652 9.81417 13.2234 14.0336 14.0582 18.146C14.1502 18.6002 13.8026 19.0236 13.3411 19.0236H13.0479C6.996 19.0236 2.07193 23.9477 2.07193 29.9996C2.07193 36.0514 6.996 40.9755 13.0479 40.9755H17.4382C17.8422 40.9755 18.1699 41.3032 18.1699 41.7072C18.1699 42.1113 17.8422 42.439 17.4382 42.439H13.0479C6.1889 42.439 0.608398 36.8585 0.608398 29.9995C0.608398 23.3329 5.87995 17.8742 12.4735 17.5731C11.8541 13.3066 13.0385 9.00295 15.7835 5.64437C22.5222 -2.5996 35.4364 -1.67556 40.8955 7.51707C42.6371 6.42522 44.6299 5.85244 46.7076 5.85244C53.0622 5.85244 58.0976 11.261 57.657 17.58C64.1897 17.9463 69.3913 23.3763 69.3913 29.999C69.3913 36.8585 63.8108 42.4384 56.9518 42.4384L56.9522 42.4384Z" fill="#025692"/>
<path d="M34.9023 22.8496C45.0721 22.8499 53.3457 31.1242 53.3457 41.2939C53.3454 51.4634 45.0719 59.7371 34.9023 59.7373C24.7327 59.7373 16.4583 51.4637 16.458 41.2939C16.458 31.1241 24.7324 22.8496 34.9023 22.8496ZM34.9023 24.6143C25.7053 24.6143 18.2227 32.097 18.2227 41.2939C18.2229 50.4908 25.7056 57.9736 34.9023 57.9736C44.0989 57.9734 51.5818 50.4905 51.582 41.2939C51.582 32.0971 44.099 24.6145 34.9023 24.6143Z" fill="#025692" stroke="#F9FFF9" stroke-width="0.3"/>
<path d="M35.2368 34.0431C35.6153 34.0433 35.9224 34.3511 35.9224 34.7296V48.6573C35.9224 49.0363 35.6152 49.3436 35.2368 49.3439C34.8582 49.3439 34.5503 49.036 34.5503 48.6573V34.7296C34.5503 34.351 34.8582 34.0431 35.2368 34.0431Z" fill="#025692" stroke="#025692" stroke-width="0.3"/>
<path d="M34.752 34.2455C35.0196 33.9778 35.454 33.9778 35.7217 34.2455L40.0068 38.5316C40.2746 38.7995 40.2747 39.2335 40.0068 39.5013L40.0059 39.5004C39.872 39.6344 39.697 39.7015 39.5225 39.7015C39.3474 39.7015 39.1708 39.635 39.0371 39.5013L35.2363 35.6996L31.4355 39.5013C31.168 39.769 30.7335 39.769 30.4658 39.5013C30.198 39.2335 30.1982 38.7995 30.4658 38.5316L34.752 34.2455Z" fill="#025692" stroke="#025692" stroke-width="0.3"/>
</svg>
